/* XPM */
static char *cb596e0f1d514b829d9a9e4a12e9444fgxCB0nzEIT8kgLnP[] = {
/* columns rows colors chars-per-pixel */
"60 60 256 2 ",
"   c #15521E",
".  c #346A19",
"X  c #377718",
"o  c #2B6815",
"O  c #185837",
"+  c #195829",
"@  c #245D31",
"#  c #1D6536",
"$  c #1B612C",
"%  c #2A6629",
"&  c #346B29",
"*  c #3A7727",
"=  c #296638",
"-  c #366C34",
";  c #397837",
":  c #2A7432",
">  c #44761C",
",  c #457A29",
"<  c #457C39",
"1  c #537E33",
"2  c #155143",
"3  c #286748",
"4  c #356C45",
"5  c #297349",
"6  c #387848",
"7  c #387855",
"8  c #2E6C55",
"9  c #347464",
"0  c #1E7143",
"q  c #447C46",
"w  c #447A52",
"e  c #457F67",
"r  c #3D8639",
"t  c #398123",
"y  c #3B8113",
"u  c #4B881C",
"i  c #59901C",
"p  c #699B1E",
"a  c #4B822C",
"s  c #47862A",
"d  c #538B2C",
"f  c #588A2A",
"g  c #5C932B",
"h  c #599628",
"j  c #4C8B35",
"k  c #4C8B3B",
"l  c #478437",
"z  c #548B33",
"x  c #548C3B",
"c  c #578936",
"v  c #4A9436",
"b  c #549334",
"n  c #5C9334",
"m  c #5D9C34",
"M  c #54933C",
"N  c #5B933C",
"B  c #5C9B3B",
"V  c #54993A",
"C  c #4C912C",
"Z  c #64992B",
"A  c #649C34",
"S  c #62953B",
"D  c #649B3C",
"F  c #6B9D3C",
"G  c #669834",
"H  c #729E37",
"J  c #729F2D",
"K  c #5CA538",
"L  c #59A12B",
"P  c #6AA22A",
"I  c #74A72B",
"U  c #66A234",
"Y  c #64A33C",
"T  c #6BA33B",
"R  c #6DAB3C",
"E  c #6BA635",
"W  c #73A53C",
"Q  c #75AC3B",
"!  c #7AAC3B",
"~  c #75A734",
"^  c #6AB33B",
"/  c #7CB33D",
"(  c #78B739",
")  c #7DB32C",
"_  c #71A81A",
"`  c #7DC33B",
"'  c #3A8649",
"]  c #3B8755",
"[  c #3C905A",
"{  c #3C8D61",
"}  c #448343",
"|  c #4C8C44",
" . c #498749",
".. c #538D45",
"X. c #548947",
"o. c #4C954A",
"O. c #539342",
"+. c #5C9344",
"@. c #5D9B43",
"#. c #54944B",
"$. c #5C954C",
"%. c #5B9C4C",
"&. c #559B48",
"*. c #478856",
"=. c #558D54",
"-. c #559B55",
";. c #599756",
":. c #499356",
">. c #649C43",
",. c #6B9D44",
"<. c #639C4B",
"1. c #659746",
"2. c #639C55",
"3. c #6B994A",
"4. c #5BA243",
"5. c #5CA54C",
"6. c #5BA656",
"7. c #5FB355",
"8. c #64A243",
"9. c #6BA444",
"0. c #6BAA45",
"q. c #64A34C",
"w. c #6CA34B",
"e. c #6CAB4B",
"r. c #64A949",
"t. c #73AC44",
"y. c #7BAD43",
"u. c #74AB4C",
"i. c #7AAC4C",
"p. c #74A447",
"a. c #6CB244",
"s. c #6CB34B",
"d. c #74B344",
"f. c #7BB344",
"g. c #7CBB44",
"h. c #74B34B",
"j. c #7BB34B",
"k. c #7CBB4B",
"l. c #75BA48",
"z. c #64A354",
"x. c #6BA553",
"c. c #6DAC53",
"v. c #64A45B",
"b. c #6AAB5A",
"n. c #67A759",
"m. c #73AC53",
"M. c #77A956",
"N. c #6DB453",
"B. c #6AB55A",
"V. c #74B453",
"C. c #7BB453",
"Z. c #7BBC53",
"A. c #7DB35A",
"S. c #7CBC5B",
"D. c #74B759",
"F. c #458A65",
"G. c #499865",
"H. c #569869",
"J. c #528E6F",
"K. c #639B61",
"L. c #59A667",
"P. c #5AB86D",
"I. c #65A965",
"U. c #72AA65",
"Y. c #6CB462",
"T. c #7CBB63",
"R. c #77B764",
"E. c #6CB075",
"W. c #7DC14C",
"Q. c #76C149",
"!. c #7BC458",
"~. c #68C15A",
"^. c #7BC367",
"/. c #7CC372",
"(. c #84B838",
"). c #85B92C",
"_. c #88C33B",
"`. c #94C93A",
"'. c #98D13B",
"]. c #8CD53B",
"[. c #A6D83C",
"{. c #A5CA3C",
"}. c #82AB46",
"|. c #83B544",
" X c #83BB45",
".X c #8ABC44",
"XX c #83B54B",
"oX c #83BB4C",
"OX c #8CBB4D",
"+X c #8AB648",
"@X c #93BC4A",
"#X c #82B653",
"$X c #83BD54",
"%X c #8BBD53",
"&X c #84BC5B",
"*X c #88B95A",
"=X c #92BB55",
"-X c #87AE53",
";X c #82BB63",
":X c #88BB67",
">X c #80BC75",
",X c #89C549",
"<X c #95CB44",
"1X c #93CC4C",
"2X c #9BCC4B",
"3X c #96C647",
"4X c #9AD248",
"5X c #83C254",
"6X c #8CC254",
"7X c #84C35A",
"8X c #8AC45B",
"9X c #88CA58",
"0X c #96C956",
"qX c #89D15B",
"wX c #9AD457",
"eX c #8AD142",
"rX c #A5DB4C",
"tX c #A5D749",
"yX c #B7DD4B",
"uX c #A5DC53",
"iX c #A6D858",
"pX c #B3DC59",
"aX c #A8CB53",
"sX c #9DE14E",
"dX c #A9E648",
"fX c #ADE45C",
"gX c #A8E556",
"hX c #B5E657",
"jX c #B3E748",
"kX c #84C364",
"lX c #8CC463",
"zX c #88C968",
"xX c #95CA66",
"cX c #8AD468",
"vX c #98D668",
"bX c #87C774",
"nX c #96CB74",
"mX c #96D573",
"MX c #8BD275",
"NX c #ABDC62",
"BX c #A7D866",
"VX c #B4DD66",
"CX c #A7DA75",
"ZX c #A0CE69",
"AX c #AAE465",
"SX c #B6E667",
"DX c #ACE475",
"FX c #B6E875",
"GX c #B8F172",
"HX c #9EE273",
"JX c #C2E567",
"KX c #C6E577",
"LX c #C4E05D",
"PX c #76BD80",
"IX c #8CD182",
"UX c #B1E784",
/* pixels */
"7 H.H.E.I.=.7 E.PXIXbX^.t ^.cX!.cX!.a.K S.m.C.M.3.p.2X'.`.3X3XZ } L.P.P.6.k ( rX2X2X.XI ! SXtXjXuXBX>.N 7XMXzXY.$.b.zXl.",
"3 4 6 ;. .- = J.H.L.L.-.: 6.B.5.4.4.C C c.w.w.3.c f (._ ).(.(.n ; ] ' ' ' r W 3X(.! J Z I 1X).).(.,Xa , <.%.;. .& %.0.a.",
"7 4 w =.q 6 3 7 7 7 7 6 *.I.H.-.-.r v.| <.c 3.c 1 M./ I I E y.w.= 3 ] H.4 6 2.,.F n c N *X8X(.(./ f.m.< 6 F.7 7  .U.@.K ",
"4 - X.* X.U.*.= = 4 4 = w *.6 6 < ; =.X.1 S > 1 +.N A ~ E T C.R.& % - }  .q 2.x 1.z x 1.A.m.k. XW $XM.% + 7 7 @ =.U.q.n ",
"S ,.%XZ oXlXS . , , , < < l < < a M +.w.OX.X@X=X*Xd d A h.m z >.9.i.F n #Xi.a x z j k ..+.n g h U F w.l ; ..; < X.3.F W ",
".XGXtXgXSXfX(.! 6X%X5X&X#XA.;X;X8X*XM.=XSXhXJXFXDXB S.kXzXkXR.w.SXiXVXVXSXvX>.R.kXbXbXT.x.V.d.( 5X$X>.m.bXIXMXbX<.w.xX8X",
").hXjXjXjXhX`.) (.(.(..X~ y.XX%XXXXXp.+XyXyXyXpXAXY @.bXMXS.z.8.2XyXLXLXpX2X8./.T.zXT.e.K 7X( ` ,XoX9.D.zXcXcX^.v.;.zX7X",
"_ tX'.[.[.'.I (.) ) ( ( h U t.#Xu.u.,.XX4X[.tX2XqXX | I.v.6. .. 2X{.aXaXtX.Xj v.n.R.b.l s !.R ( ~ j.z 2.N.V.R.n.: ; n.R.",
"y.|.3X).).<XW 9.8.4.r.D.4.4.V @.5.O.%.Z.,X( ( ,X^ v 6 7 F.F.8 *.xX@X}.%X_.( #.' ' *.}  .;.n.<.m.9.q... .*.:.*.6 ] *.*.*.",
"i.*XW  X.X%Xi.d s V V v 4.j s M l * v N.a.l.g.^ qXr.$ O 7 3 O 6 :X}.*XC.g.9XO.6 6 *.- q X.X.1 3.c >.$.% = 7 8 O 6  .- = ",
"n n p.,.n S F t.Y d d m A u t.F > Z Z u g G A g D B X * & - ; ..9.T f.E R Y j ; * o , . i.-X}.=XZ %XS & - & & ; l +.* , ",
", <.C.kXm.w.A DXBXBX0X6XZ BXBXFXSXVX0XJ y.W p.i.1.,.j.XXA.;XA.w.8.7Xk.W.Z.C h.V.C.m.#X}.0XKXKXVXSXSX=X-X*X;X:X:XM.c &X&X",
"} R.h.HXzXV.h vXiXBX0X.XJ NXFXGXSXpXSX(.I |.+Xi.w.,.Q  X5Xh.C.8.r.!.qX9X^.4.^ g.$Xj.XX|.@XJXJXJXyXhX3X! OX6XoXf.u.N mX9X",
"6 ;.B.D.n.l y qXwX3X.X.X~ .XNX2X2XtX(.p ~ f.y.u.<.N t.d.Z.0.e.@.&.5.N.B.6.* C 5X$X$Xj.E ~ NXaX3XtXtXI I  XoXg.h.O.l b.kX",
"8 e 6 H.J.6 j cXoX/ / oX/ f.6XXXg.oXy.f Y 9.8.q.5.O.&.5.r.&.6.:.] ] ] F.7 *.b.c.q.x.q.D t.0XOX.X X XE Y 8.K K r.-.' *.*.",
"8 O = *.8 4 @.5XU d.k.j.$X&Xu.$Xh.h.lX>.d b B b e.z.* k M j #.:.6 = 3 6 = 6 $.a M C b 8.kX&Xy.6Xf.9X7Xs B b m r.L.: 5 5 ",
"} ..2.. . a f g f 9.n n S f z F U h f t.h P h A W G g i.F A u.,.. , . . a , w.A / P W F a , F j.T T E E A XXi ! kXr : + ",
"u.UXvXBXBXFXW T T C.u.p.S S ,.u.f.~ U 6XAXwXAXBX@X.XVXBXVXVXNX! W +X}.}.y.W ZXBXuXuXNX0XG u.h.xX&XY / GXiXfXiXNXmXm.;XT.",
"/ AXgXgXgXwX%XA 7X8XxX$Xb Y h.k.9Xh.U 5XfXdXfXgXrXtXtXtXfXtXuXtXI .X|..X/ ~ 0XSXSXhXtXAXm D.!.cXzXm.R AXjXjXhXSX0XW XXXX",
"P wX'.tX'.wX9.N c.e.S.8.s 4.V.V.V.e.B h.1XsX].4X<Xp 4X4X_.`.4X) I .X.X,X/ P ! wX2XuX`.eXs o.~.B.b.k X 1X'.[.'.aX|.Z f.oX",
"i.%X,X( ,X$Xx.$.=.=. .}  .;.2.;.;.....x.k.g. X X/ Q ,X X/ / / / / Q ~ Q ! P 0X0X.X).).( 6.] ' G.*.< >.,X.X).(.OX0.n B >.",
":XA.j.%Xj.:X2.& q =.- q ;. .} X...& $.R.h.d.d.d.j.Z.T t.$X$XoXoX8Xf.W f.W 6X0Xy.XX0X,X9X#.= 5 6 = ; 8.%Xy.+X@X%XmXb M x ",
"k l x w.d S >.S n 9.a n c , > s X z , a g h g n B Y d b 9.9.9.9.T S A S n F A f G F Z R w.c < ; l x D g g J ~ H u.z , z ",
"< 2.:XnXR.c 9.DXAXNXBXiX,XwXiXwXFX0X#XF y.y.u.u.Y B h.0.e.e.e.e.U Z.zXZ.S.d t.$XC.p.t.E 0XFXxXCXvXxX&Xt.XX! ! |.w.>.;XzX",
"w U.;XvXnXx.D BXuXrXuXuX<X<XtXrXuXiXiX~ |.6X7XC.Z.C k.!.cX!.l.L K qXqXmXS.0.R g.W.9X5X/ (.rXiXiXwXNX/ ! XX X XXXr.V zX^.",
"w K.w.&X2.X.z 6X`.`.<X<XI <XtX4X<X<X,XZ t.C.C.e.u.b h.V.Z.V.s.K v 5.7.B.5.s C W.( d.d.E I `._.<X`._.Z E h.h.d.h.5.r B.^.",
"6 w < ;.w 4 ..&Xg.(. Xf.f.|.,X,X|.XX#Xc N <.<.+.+...2.z.%.z.b.6.G.{ G.:.6 *.5.r.8.B N S W XXXX|.( ( Y B %.%.%.%.:.] G.] ",
"; - % q 3 = 2.;Xd.f.j.C.lX9.U j.y.j.C.f , d j , , l k ..| #.n.I.5 # 7 *.= 6 k s S d a d F p.F i.U l.h.a k k j j -.6 # $ ",
"* X . & ; ; k b m 8.>.x x.1.n m Z U h U Q E P m 8.j s V M s v @.l ; & o , , |.! (./ / / i Z Z g g T d ,.F W I  Xu.a * o ",
"K R V.D.R.b.@.b S.kXT.U.x x.C.t./ / ~ ,XSXfXgXgXvXB B zXMXcXN.C A.A.&X&X:XH 2XJXpXVXfXAX/ Q / oXj.$X,.#X0XNXfXfX6Xp.C.#X",
"Y l.k.R h.S.%.n.cXMXbXR.%.x.h.k.k./ ~ eXgXgXdXgXvX8.N.^.mXzXN.8.a.d.k.$X&Xi.3XhXpXpXgXfXf.t.d.W.d.k.Y $X9X0XuXwX8Xe.C.C.",
"s 0.Z.a.Y N.l =.n.b.I.-.% <.S.h.j.R h ( eXeX].eXqXX k Y.R.R.&.* a.d.d.h.C.T / iX2X1X<X1Xm 0.a.R r.e.b q.S.0.W.,X0.M 8.e.",
"} %.| O.O.| *.*.7 F.F.4 *.2.8.9.1.1.z $X9X( eXeXW.%.7 9 H.*.6 =.x.9.<.@.Y L vX9XW.( d.!.N.v v &.| ;.=. .=.;.x.D.e.8.@.M ",
"k * @.M j O.; + + 3 3   - +.Z Z n N n e.h.R ( ^ cX%.O 3 F.= @ *.1.G N d U h ^ ^ l.a.0.s.s.C b t a U.$.% & ; ..<.V.D N @.",
"A oX/ 1X1X0X8.a l * * , z OX<X`.rX2X$Xn z s.Q.u m q.%.#.< < ..1.0X3X@X(.wX( u b 0.0.U h Q 1X_.4X1XwXW d d f Z S n m.D Y ",
"I GXuXgXSXSXf.t.8X8X&X#XW pXhXjXjXfXvXN nXzXvX5Xr.@.vXvXzXA.A.p.SXhXpXpXgXwXA kXzXxX5XQ 1XSXhXhXhXgX.XW .X,XOXXX9.u.xXqX",
"(.wXtXrXtXfX/ E f.f.j.j.! 2XyX[.hXSXvX1.>X^.cXZ.b.@.W.1X9XC.i.! rXtXtXhXtX,XB R.S.9X$XE 6XBXaXiXuXAXOXW |.(.|.f.F m 9X9X",
"p ,X1X<X<X1XE U 0.d.u.t.Z |.<X`.`.wXp.* v.v.R.5.} * d.^ C.e.9.W (.<X<X(.`.Q a ;.-.5.@.b G =X0X0X,X1Xg p.j.j.j.j.>.@.C.Z.",
"h.kXZ.l.W.7XB.&.5.5.z.z.x.nX8X X) ,X$Xx q w J.7 *. .Y.q.q.@.@.>.ZX%X/ (.,X5X} ] { { *.o.U.:X=X%X,X,X5Xe.x.n.z.z.$.K.K. .",
"z.q.@.Z.8.T.R.r l l k l ;.R.,.j. X~ lX* % = 6 = *.I.| v M b b N D p.y.f.E 7X| $ 5 0 : } n.3.p.xXR l.S.M +.......U.=.- = ",
"l x e.S.Y @.#.;.z.q.e.C.@.a n C.C.S <.x j j j k l r.qX` _._.5XA u g A A Q A S x ..| a a x w.F F U m +.+.M.p.n 1.@.k l ; ",
"; T.^.cX^.q.#.T.;XxXxXlXT.x nXlXnX>X$.@.$XW.Z.S.q.Z.AXsXdXgXAX5XE d.k.k.Z.R j.xXnXnXxXlX1.T.A.C.Z.D...U.lXvXmXnXe.V.S.T.",
"7 E.R.MX/.o.r ^.5X9X9XS.U.v.T.zXzXb.;.O.Q.Q.Z.S.q.C.wXgXgXgXAX,XR h.$X$X$XY d.vX!.MXbXB.B S.D.kX7XV.#.n.!.cXzXN.@.c.D.V.",
"3 F.L.-.L.6 : D.5Xg.d.V.X. .v.z.@.v.; | a.^ s.c.@.D 6X1XeXeX,XU m 9.s.s.0.n m S.4.B.I.| v N.Y./.c.c.; | n.5.7.o.* %.V.N.",
"7 7 5 7 8 3 o.D.e.u.h.m.;.*.q *.=.;  .;.v.%.b.5.@.A.xXg.( ,Xg.t.@.<.M q.b.O.q.z.; -.'  .6.b.#.-.z.z.;.*.6 G.*.] r 5.-.o.",
"6 # # 5 O 3 | r.M N A B n.& -  .q %  .#.k &.j M N V.9.T XXd.f.7Xs a N , x x.j * ..| 6 =.#.l ;.v.l ..=.+ = 6 = ' #.l ; :.",
"j s k l k | M @.n m A D <.+.D D z <.< x.k.5Xj.&XA.w.a S T g h Z $XT j.XX%Xy.Z p.A.z A.9.z a w.S.d s @.N +.S g u.x.< l ;.",
"t.8X$XC.8X&X<.e.h.g.g.k.>.mXvXNXCXCX:X8XAXuXSXBXUXw.w.m.lXkXu.Z BXSXBXNXFX3XiXFXCXFXFXCX>.A.h.5XMXh.9.UXFXNXSXSXlX#.bX;X",
"G f.XXoX$XZ.q.V.V.l.g.g.t.ZXiXuXiXiX%X6XtXrXuXiXZXF <.b.MXbXb.>.iXiXiXiX2X_.2XNXNXVXNXwXM R.!.cX/.7.&.vXuXrX4XiX&Xx bX^.",
"f XX%XoXoXV.k x.e.Z.k.R d #X1X<X2X3X! ~ `.`.`.2X0Xn ..-.I.I.*.; 8X2X2X3X(.).) 2X0X3XwX5X& -.5.6.L.' r vX1X4X<X1XV.s z.b.",
"S ,.D u.h.8.%.O.M 4.4.M q.kXoX/ |.|.oX X.X(.(. X$Xx 6 J.{ F.*.=.lXOX|.|.|./ 0X0XOXXXOX&X;.7 6 F.9 5 | 9XoXQ  Xk.D.$.}  .",
"M.x.N Y 8.V.q.s V V V M q.S.h.u.i.u.&X$Xy.|.|.f.zXx.$ w 6 6 6 =.;Xj.f.oX#XlX$XW j.%Xd.zX$.= O 7 3 # z.lXt.8Xk.h.;Xl < 6 ",
"%.M a.a.b j c.Z.( (.|.#XD z z ;X>.N >.D m U h A D w.S D 1.,.A.,.f d t.j.>.w.n n n T E Y 8.* } }  .; x D g F T D 8.M a < ",
"' Y.Q.qXT.z.D FXfXhXAXDX*X+.:X;XR.c.>.8.h.k.h.C.9.h.SXiXSXBXNXXXN zXxXzXT.@.e.h.t.j.g.d.T S.zXkXkXT.9.;XC.j.Z.Z.0.&XlXlX",
"' E.~.mX/.z.q.DXAXfXfXDXT.%.R.S.zXS.@.q.h.d.h.h.K W.uXtXpXiXBXXXD zX9XvXbX<.B k.g.,X5Xd.R oXk.9X5XC.u.*X%X0X9Xk.U oX6X,X",
"5 *.L.I.E.} l zX0X1X1XqXq.} n.6.n.n.; k V.a.Z.N.K K 1X4XiX0X1XU l b.D.R.v.; 8.k.l.l.h.0.m t.Z.7XV.m.D C.&X$XZ.h.B t.k.oX",
"9 9 9 J.9 3 #.zXk.g.k.Z.Y.o.] ] H.6 q I.z.5.n.6.%.r.9X Xf.Q |.A ; *.] [ 7 *.;.D.B e.q.n.b.b.%.2.;.K.$.R.z.n.v.-.#.z.q.e.",
"8 2 2 9 2 O o.N.u.j.j.S.D.* : ] 7 = } 2.$.%.| | -.b.0.d.5XQ  Xt.% = 5 5 O 6 +.n B 8.M x.O.< $.} q < $.q.k #.o.' b.x.b d ",
"} } ; ; 6 ; k B N ,.n F 0.b N x.+.1.z n N N c ..l k m m t.A / A , & : ; ; l W I ! W j.T G f i.,.,.m.n s s X X * f H ~ I ",
"O.bX/.bXR.R.V e.*X:X,.p.f vXDXCXCXCXlXn i.i.:X:Xv.&.V.d.j.j.0Xy.u.c.B.R.R.>.0XfXNXFXFX0X%XxXZXCXCXvX#Xj.S.Z.V.j.J NXJXpX"
};
