/* XPM */
static char *df102e0b91234047e15e907dec68c2eazPyeW7o3qkjKh1G1[] = {
/* columns rows colors chars-per-pixel */
"60 60 255 2 ",
"   c #2D0501",
".  c #350C08",
"X  c #3A120D",
"o  c #3C1615",
"O  c #390D15",
"+  c #3B3033",
"@  c #441D1D",
"#  c #421915",
"$  c #5D1F1B",
"%  c #44221D",
"&  c #47231C",
"*  c #451F24",
"=  c #4B2725",
"-  c #512B29",
";  c #593A39",
":  c #503331",
">  c #613C3E",
",  c #672F2A",
"<  c #2C573A",
"1  c #38743C",
"2  c #336C3A",
"3  c #17603D",
"4  c #594439",
"5  c #515435",
"6  c #624639",
"7  c #675637",
"8  c #43773A",
"9  c #527C3B",
"0  c #536539",
"q  c #6A693B",
"w  c #0F3154",
"e  c #0F3B69",
"r  c #663B40",
"t  c #1A4958",
"y  c #1E5658",
"u  c #154D4E",
"i  c #295849",
"p  c #335945",
"a  c #275B55",
"s  c #2E4F52",
"d  c #1C6655",
"f  c #2C6549",
"g  c #38664A",
"h  c #387849",
"j  c #276557",
"k  c #346755",
"l  c #2A7759",
"z  c #367958",
"x  c #267946",
"c  c #1A4A62",
"v  c #165168",
"b  c #285268",
"n  c #1E6667",
"m  c #2D7067",
"M  c #594745",
"N  c #4D5548",
"B  c #674846",
"V  c #6A554A",
"C  c #765858",
"Z  c #6F5050",
"A  c #487849",
"S  c #587649",
"D  c #456954",
"F  c #567C57",
"G  c #4A6E4F",
"H  c #706A51",
"J  c #577263",
"K  c #7C6562",
"L  c #767E68",
"P  c #775962",
"I  c #903533",
"U  c #AC5656",
"Y  c #846968",
"T  c #8B7573",
"R  c #92787A",
"E  c #88706F",
"W  c #B57A76",
"Q  c #8B5752",
"!  c #E55B5B",
"~  c #D97271",
"^  c #E86968",
"/  c #E87777",
"(  c #EE7170",
")  c #D35A59",
"_  c #3A883A",
"`  c #478738",
"'  c #548939",
"]  c #57973A",
"[  c #4A9634",
"{  c #659B3C",
"}  c #6C8C3E",
"|  c #5BA539",
" . c #54BA3D",
".. c #6BAA2C",
"X. c #77B52C",
"o. c #69A939",
"O. c #75AC38",
"+. c #69B237",
"@. c #74B334",
"#. c #7BB435",
"$. c #7CB43B",
"%. c #78B739",
"&. c #6EAF2C",
"*. c #74C23D",
"=. c #398648",
"-. c #388857",
";. c #358F56",
":. c #388666",
">. c #338B6C",
",. c #3BAF5E",
"<. c #478748",
"1. c #56874A",
"2. c #479648",
"3. c #5A9846",
"4. c #458656",
"5. c #588558",
"6. c #499757",
"7. c #5A9957",
"8. c #689A47",
"9. c #679A56",
"0. c #70904F",
"q. c #5DA546",
"w. c #48A655",
"e. c #57A556",
"r. c #5AB354",
"t. c #54B34A",
"y. c #68A647",
"u. c #75A746",
"i. c #6AB648",
"p. c #78B746",
"a. c #68A654",
"s. c #7AA956",
"d. c #69B554",
"f. c #78B654",
"g. c #53906B",
"h. c #6C9163",
"j. c #53AF66",
"k. c #73A864",
"l. c #7BC445",
"z. c #73CF52",
"x. c #6CC465",
"c. c #83BB39",
"v. c #8AB935",
"b. c #868638",
"n. c #8AC639",
"m. c #97C939",
"M. c #9BD53B",
"N. c #8CC930",
"B. c #A2CB3B",
"V. c #A9D638",
"C. c #B4DC3A",
"Z. c #B7DD36",
"A. c #ADD42E",
"S. c #BCE334",
"D. c #BCE23B",
"F. c #BAE638",
"G. c #ADE432",
"H. c #91EC3C",
"J. c #C3E938",
"K. c #C9F536",
"L. c #CAEF30",
"P. c #8B904C",
"I. c #86AA4A",
"U. c #87B948",
"Y. c #89BB54",
"T. c #94B250",
"R. c #A2AC50",
"E. c #93877C",
"W. c #8DB571",
"Q. c #E6817E",
"!. c #88C546",
"~. c #96C947",
"^. c #87D847",
"/. c #97D546",
"(. c #99C657",
"). c #8FCF57",
"_. c #A5CB46",
"`. c #A6D648",
"'. c #B5D947",
"]. c #A9D255",
"[. c #98E25A",
"{. c #BCE645",
"}. c #B4EC50",
"|. c #93CB6D",
" X c #A6CA7C",
".X c #ADD26C",
"XX c #9EE768",
"oX c #C6DD50",
"OX c #C4E948",
"+X c #CCF44F",
"@X c #C6ED6A",
"#X c #E5FF5A",
"$X c #997E83",
"%X c #7B9C8D",
"&X c #9A8885",
"*X c #919593",
"=X c #A89796",
"-X c #A8908D",
";X c #93B488",
":X c #B0AC99",
">X c #AC9FA0",
",X c #ADA7A5",
"<X c #B7A9A8",
"1X c #BCB3AB",
"2X c #B4B4B2",
"3X c #9CA3B0",
"4X c #E88788",
"5X c #E79596",
"6X c #E88F90",
"7X c #C5B9B7",
"8X c #C2ACAC",
"9X c #E6ACAC",
"0X c #E8A7A6",
"qX c #ECB3AD",
"wX c #E9B5AF",
"eX c #ECB6B1",
"rX c #EDB9B3",
"tX c #E8B8B7",
"yX c #F1BAB4",
"uX c #D89E94",
"iX c #A8CB87",
"pX c #B1D18E",
"aX c #BEE985",
"sX c #ACC9A1",
"dX c #CCE681",
"fX c #D0EC8C",
"gX c #C8C5B7",
"hX c #CBCDAB",
"jX c #E9C2BF",
"kX c #CFE6B2",
"lX c #CFBAC0",
"zX c #BED1CB",
"xX c #CCC6C4",
"cX c #D4C9C9",
"vX c #D7D4D4",
"bX c #DCD7D6",
"nX c #CED4CC",
"mX c #E9C9C7",
"MX c #E7DAD8",
"NX c #F6D1CC",
"BX c #E4E5DD",
"VX c #EAE5E4",
"CX c #EDEDED",
"ZX c #E8E6E5",
"AX c #F0EDED",
"SX c #EDF1EF",
"DX c #EEEEF0",
"FX c #EEF1F2",
"GX c #EDF6F8",
"HX c #F3F3F4",
"JX c #F6FAF9",
"KX c #FBFCFD",
"LX c #F7F8F6",
"PX c #F1EFF0",
"IX c #D4E6D1",
/* pixels */
"p a j.j.[.6.i.H.d.[.|.g.d.z.6.:.h 5.|.z.^.+.u.!.Y.+X(.A [.[.i.t.1.(.`.M.m.n.p.A./.+X`.8 /.M.*.p.u.8.$.c.c.#.$.%.N.N.X.@.",
"h f u z i.,.z.i.z x.z.XXk 4.w.j 2.[ k y.M.i.f./.f./.^.^.3.f.w.x a g p.m.M.m.p.G.p.^.l.z.q.u.p.3.8.A { c.c.o.a.Y.] X.O.p.",
"< < j z w.:.t ;.w.k :.z A z 6.a t j l <.e.x.f.z.6.t.*.^.<.;.w.u p S 8.u.U.!.7.3.6.w.z.x.6.z d.1.g < o.#.$.$.A ).4.y.!.y.",
"1 u l i h t a w.;.a 7.s z 6.t t z :.6.6.j.:.t :.j.:.:.y l j.j.n G u.!.i.i.a.m 6.d.z m j l w.e.8.A A y.] 8.o.3.6.r.7.z 4.",
"h h 6.j g f.d l z z.i.i j a l >.b t :.c n g.m g.5.s 5 N N N N M N N 5 0 } 8.4.d.w.6.n.h 4.5.S u.I.5.3.5.7.p.<.-.<.4.!.' ",
"=.f h j y d.6.t e.a.D <.m a.' v m j.g.b D N 4 B C T -X>X1X8X7X7X1X,X-XR Y B 4 M N u.a.D M = @ @ = M S 6.6.8.8.y h ^.3.i ",
"1.<.f j 4.i 4.N : = = - : P.G g.5.: 4 C &X7XvXZXJXKXKXKXJXJXJXJXJXKXKXKXJXCXbX7X&XZ : @ X % @ * @ # - F j.a #.3.=.<.a 4.",
"h a t a -.9.M # # @ @ @ # o V H V &XcXHXKXJXHXFXCXCXCXCXCXCXCXCXCXCXCXCXCXCXHXJXKXCX7XY = X * = @ % X 4 k.y A {.G 0.l j ",
"f /.k g q.G # % * @ @ @ = = X R HXKXLXCXCXCXCXCXCXCXCXCXCXCXCXCXCXCXCXCXCXCXCXCXCXCXJXJXMXT o X & % @ = oXu.D @XU.].z U.",
"A V.F.v.K.0.# & @ @ @ @ @ = X E KXZXCXCXCXCXCXCXCXCXCXCXCXCXCXCXCXCXCXCXCXCXCXCXCXCXCXCXHXJX7XV o & O V K.L.m.(.+X'.'.L.",
"<.N.S.S.J.R.o % * @ @ % % & X =XJXCXCXCXCXCXCXCXCXCXCXCXCXCXCXCXCXCXCXCXCXCXCXCXCXCXCXCXCXCXJXHXK . 7 '.L.J.L.D.J.J.J.S.",
"h T.S.Z.S.J.P.o % @ @ # X . E.HXCXCXCXCXCXCXCXCXCXCXCXCXCXCXCXCXCXCXCXCXCXCXCXCXCXCXCXCXCXCXCXCXHXE 7 OXJ.J.S.J.S.J.D.D.",
"9.(.B.D.D.S.J.P.@ = = - B >XHXCXCXCXCXCXCXCXCXCXCXCXCXCXCXCXCXCXCXCXCXCXCXCXCXCXCXCXCXCXCXCXCXCXDXKXZ 7 OXD.D.D.+XOXD.Z.",
"5.8.V.C.C.C.F.P.Z MXvXMXHXJXCXCXCXCXCXCXCXCXCXCXCXCXCXCXCXCXCXCXCXCXCXCXCXCXCXCXCXCXCXCXCXCXCXCXCXFXVX- P.F.D.m.'.+X_.B.",
"5.~.B.V.C.C.T.; vXJXHXHXCXCXCXCXCXCXCXCXCXCXCXCXCXCXCXCXCXCXCXCXCXCXCXCXCXCXCXCXCXCXCXCXCXCXCXCXCXCXKX1X; '.B.@Xu.].oXn.",
"k G u.!._.`.4 E KXZXCXCXCXCXCXCXCXCXCXCXCXCXCXCXCXCXCXCXCXCXCXCXCXCXCXCXCXCXCXCXCXCXCXCXCXCXCXCXCXCXCXKXP P.c.Y.(.y.U.%.",
"-.~.M.8.!.I.- vXHXCXCXCXCXCXCXCXCXCXCXCXCXCXCXCXCXCXCXCXCXCXCXCXCXCXCXCXCXCXCXCXCXCXCXCXCXCXCXCXCXCXCXJX,X: !.o.p.p.p.l.",
"|.T.u.OXU.q Y KXCXCXCXCXCXCXCXCXCXCXCXCXCXCXCXCXCXCXCXCXCXCXCXCXCXCXCXCXCXCXCXCXCXCXCXCXCXCXCXCXCXCXCXHXMX- I.n.u./.!.p.",
"n F +X0.s.4 7XJXCXCXCXCXCXCXCXCXCXCXCXCXCXCXCXCXCXCXCXCXCXCXCXCXCXCXCXCXCXCXCXCXCXCXCXCXCXCXCXCXCXCXCXCXJXZ V @Xf.U.O.%.",
"e.].D D I.B ZXFXCXCXCXCXCXCXCXCXCXCXCXCXCXCXCXCXCXCXCXCXCXCXCXCXCXCXCXCXCXCXCXCXCXCXCXCXCXCXCXCXCXCXCXCXKXE.+ k.}.3.y.y.",
"7.g p q.H K JXCXCXCXCXCXCXCXCXCXCXCXCXCXCXCXCXCXCXCXCXCXCXCXCXCXCXCXCXCXCXCXCXCXCXCXCXCXHXCXCXCXCXCXCXCXKX=X4 k (.9.g 1.",
"=.` +.| 5 T KXCXCXCXCXCXCXCXCXCXCXCXCXCXCXCXCXCXCXLXJXHXCXCXCXCXCXCXCXCXCXCXCXCXCXCXHXHXBXCXJXCXCXCXCXCXKX,X7 U.9 O...X.",
"=.3 A ].7 T KXCXCXCXCXCXCXCXCXCXCXCXCXCXCXCXCXFXFXgX1XvXHXCXCXCXCXCXCXCXCXCXCXCXCXHXMXK = ; 1XHXCXCXCXCXJX<X4 ~.c.#.c.X.",
"_ x t f.q T KXCXCXCXCXCXCXCXCXCXCXCXCXCXCXCXCXHXY X X % 7XHXCXCXCXHXHXLXHXCXCXCXCXKXT   = X = ZXHXCXCXCXKX=X4 !.c.#.#.O.",
"2 j.x.x.S Y KXCXCXCXCXCXCXCXCXCXCXCXCXCXCXCXHXbX# # =   R KXCXHXbXC E Y C T HXCXCXHX1X% X X K CXCXCXCXCXKX-X7 U.#.c.$.U.",
"i < k j.0.C JXCXCXCXCXCXCXCXCXAXCXSXFXFXFXDXCXHX&X& @ ; vXHXCXCXHX6 W Q W B CXGXFXCXHXcX&X<XSXHXCXCXDXBXMXE 7 [.u.u.`.`.",
"g.:.n m a.4 MXHXCXCXCXCXCXCXAXCXFXVXMXMXMXVXSXDXHXbXcXZXHXCXDXHXmXU ~ / ( ) / 9XVXGXCXHXKXJXCXCXCXCXmXeXyXuX; [.d.u.*.<.",
"u w >.:.j.4 >XKXCXCXCXCXCXCXCXSXMXrXeXqXqXrXmXVXCXHXHXSXCXFXVX5X^ ^ ( / Q.4X( ! ^ wXFXCXCXCXCXCXSXNXqXeXrXwXr 9.r.q.<.6.",
"-.2.=.t l D B HXCXCXCXCXCXCXSXmXqXeXrXrXrXeXeXmXCXCXCXCXFXCX/ ! / 0XwX0X0X9X9XqX4X! 6XCXCXCXCXCXCXrXeXrXeXyXZ G 2.=.e.t.",
"<.` f j >.m : -XKXCXCXCXCXCXVXeXeXrXeXrXeXrXrXqXMXFXCXAXFX5X! 4XtX5X5X0X0X0X0X6XtX5X! 0XGXCXCXCXCXrXqXeXyXqX> 1.h a.f.h ",
"p b e w n l h.: vXKXZXCXCXHXMXeXrXeXeXeXrXeXrXqXmXFXCXFXMX^ ^ tX6X5XtXQ.4X4X0X0X/ jX( / CXCXCXCXCXmXqXqXNXW 6 a.2.i.h <.",
"i.m e J D w ].R.: gXKXCXCXCXVXrXqXyXrXrXeXrXyXqXMXFXCXGXmX! / mX4XmX( 0X9XeX4XtX6XwX5X^ MXFXCXCXCXCXMXNX-X* h.`.<.h A k ",
"g V.q.`.+X5.0.#XP.: >XPXKXPXCXMXwXqXqXqXeXqXqXmXCXCXCXFXmX^ ( tX5XmX/ qXQ.4XtX0X0X0X0X! MXFXCXHXKXJXvXR 6 R.1.'.I.u._.8.",
"1 m.K.Z.J.K.I.'.+X'.7 M <XVXJXKXLXMXmXrXrXjXMXCXCXCXCXCXZX~ ^ 5XwX6XtX/ ( 9X0XeX6XwX6X/ JXHXZXxX=XP 6 b.oXL.Z.v.J.J.J.L.",
"8 m.S.S.S.F.J.'.S.L.J.R.q V R -X<XvXZXVXPXLXKXJXJXKXKXKXKXNX( ^ 0X9X0X9X0X9X5XeXQ.tX( U E K V V 0 0.OXK.J.Z.J.D.D.J.S.S.",
"8.B.A.Z.Z.C.C.D.D.Z.S.J.J.{.6 - C = = - ; Z K E T E.&X&X&X&XU ^ ( 6X9X9X9X9XwX5XtX/ I % # 0.O.O.p.Y.'.Z.Z.Z.C.D.J.D.{.S.",
"S _.Z.Z.C.C.C.`.'.D.V.A.S.R.M ZXKXvX1X&XC : @ .         X X o , U ^ ( / 4X5X5X5X6XW ,XZXC q l.o.S T.'.C.C.C.C.B.}.OXm.B.",
"5.0.v.A.C.V./.}.~._.'.B.`.- =XKXCXHXJXKXJXCXMXxX1X=X-XT = o X . . $ I U 4X~ U Q C P R KX>X; f.y.h.5.s.B.V.V.`.}.f.(.@X_.",
"m 7.i.c.m.m.O.~.~.(.(.!.H ; PXCXCXCXCXCXCXCXHXHXJXKXKXJX7X<X1X<X=XE 4 . K V - =X7XcXvXCXMX; a.4.F U.f.$.N.m.u.(.].s.Y.O.",
"n U.V.%.!.!.%.+.p.q.q.^.; =XKXCXCXCXCXCXCXCXCXCXCXCXCXCXLXJXJXJXKXKXHXxXB - ZXKXLXHXHXCXJXC S r.l D M.N.c.n.%.] p.q.| l.",
"`._.0.}.U.O.n.p.i.^.l.s.> MXHXCXCXCXCXCXCXCXCXCXCXCXCXCXCXCXCXCXCXCXCXKXvX- bXCXZXCXCXCXKX-X5 ;.k.}.!.!.M.O.n.%.i.U.!.p.",
"S G @XI.9.q.O.~.p.p.i.0.C LXCXCXCXCXCXCXCXCXCXCXCXCXCXCXCXCXCXCXCXHXHXKX=X= CXKXKXKXKXHXKX1X: f.Y.5.W.}.u.8.} _.p.U.p.y.",
"G (.S p a.f.9 u.!.3.y.0 R KXCXCXCXCXCXCXCXCXCXCXCXCXCXCXCXCXHXHXCXMXxXE - B B R &X&XT Z ,XcX: 5.j h.Y.p F ).3.1.!.y.| y.",
"A g h 6.A D I.1.a.3.1.5 -XKXCXCXCXCXCXCXCXCXCXCXCXCXCXHXMXV B B B ; V Y V vX= &X=X=X<X7XZXbX- J l 1.A 8 ] 8 1.k 5.q.<.A ",
"h =.2.1.7.k !.}.9.7.`.4 =XKXCXCXCXCXCXCXCXHXHXCXCXCXCXCXCXcX7X7XxXbXHXCXV bX4 bXKXKXKXLXHXCX4 5 9.` X.&.@.&.{ p.2.| 9.u.",
"1 =.f _.F.{.3./.+X~.}.7 -XKXCXCXCXCXCXCXFXbXbXKXHXCXCXCXCXHXJXJXLXHXCXZXB vX6 7XHXCXCXCXCXFXMX&X: S p.@.O.#.o.!.n.o.}.I.",
"1 -.<.3.N.G.u.9 {.}.f.q $XKXCXCXCXCXCXCXHX,X4 Z gXKXHXCXCXCXCXCXCXCXCXLXE V Z vXHXCXCXCXCXCXPXKX7X= : 0.X.&.O.O.n.c.M.] ",
"f 9.z.i.^.1.u.!.[.}.i.N C LXCXCXCXCXCXCXCXHXZX&X& K xXHXCXCXCXCXCXCXCXCXCXbXZXCXCXCXCXCXCXCXCXLX&Xo % H ~.U.U.U.!.~.!.!.",
"f t i e.).e./.^.i.^.z.k.- =XKXCXCXCXCXCXCXCXKX<X#   Y KXHXHXHXHXHXHXHXHXJXKXKXKXKXKXLXHXKXKXKXkX$.W.{ iXLXHXJXKXHXHXLXKX",
"<.2.l -.w.r.4.q.2.t. .hX-X% =XJXKXHXCXCXCXDXZX: o o K MXvXvXvXvXvXvXxXxX7X<X,X=X-X&X7XKXZXBXCXpX9 1.<.BXKXKXHXHXKXJXxXbX",
"u w >.6.w.j a e.<.a l *XMX8X: B =XbXSXJXJXKXxXX @ @ ; 4 ; > 6 > ; ; 6 > B B Z C Y C &XKX,X*X>XW.L N E.2X2X2X2X,X,XbXvX*X",
"-.=.;.c ;.l j w.m g.x.a g.2XcX-XY V Z K K Y Z # @ R cXlX7X7X1X1XhXhX,XhXhXgXhXgXgXcXgX X XW. XW.W.;XZXLXCXPXLXKXDXKXZXKX",
"f ;.l n ,.;.t l >.,.d u u l g.*X3X,X:X-XE.E.&X:X:XhX:XW.W.f.i.f.f.D I.`.u.' O./.O.c.p.u. XpXkXfXsXzXIXnXIXIXzXnXIXIXnXnX",
"` w e w c c v v >.n v v v v w v -.(._.F h..XY.f.~.y.o.o.y.y.p.`.s.k.U.s 5.).G u.~.y.q.y.{ y.U.~./.3.3 < < 1 3.i 2.x t d ",
"] ` i j s w y e c e e u f y =.j A 3.g 3.{ 1.s.1 i.7.y.3.3.3.' ' I.9.i 1.A F 5.p 9.7.A ' ] 3.A A a.u.} G @X0 s..Xf 5.j a.",
"2 [ &.| *.] O.o.' | o.+.X.o.+.q.2.<.o.] y.f |.k.D @XA 1 ] ' ] | ` ] ..&.N.{ #...' o.....X.......8 U.K.m.OX+XI.].T._.Y.OX",
"3.] &.@.@.#.o.n.n.n./.$.@.c.u.%.] 4.g.(.!.W.1.XX].@X|.A s./.p.<.3.3.%.@.#.#.#.n.v.N.N.#.@.#.O.O.u.W.{.J.{.{.OX`.OXF.OX~.",
";XW..X X X X X XiX X X X X X X X X%X%XiXaXfX:X%XaXaXpXpXfXpX;XiX;X;XiX X X X X X X X X X X XiXiX;XpXdXdXdXdXdXdXdXdXdXdX",
"1.y.{ $.#.#.#.%.c.%.#.@.@.@.@.&.] <.d.p.l.3.u.[.!.}.p.F x.x.d.^.A 3.@.#.@.@.@.#.#.c.#.X.@.@.@.+.a.]._.D.D.F.S.C.OX{.F.G.",
"~.S 1.p.$.$.%.%.p.U.{ %.O.p.p.{ 8 q.2.7.[.a.f./.d.`.^.l.d.x.r.x f 1.O.c.$.@.%.$.%.#.#.@.@.O.O.] s.].'.C.C.C.C.m.~.+X/.M."
};
