/* XPM */
static char *b0272bfedb954a17f4bf29728582d1dfoXOan9z8dFTVTxx4[] = {
/* columns rows colors chars-per-pixel */
"60 60 218 2 ",
"   c #1A1A16",
".  c #251E16",
"X  c #251C0F",
"o  c #2A251C",
"O  c #31291D",
"+  c #2B2822",
"@  c #332D24",
"#  c #3B342B",
"$  c #393328",
"%  c #383B37",
"&  c #42392B",
"*  c #483E34",
"=  c #3C413E",
"-  c #4B453B",
";  c #474338",
":  c #554A3B",
">  c #5F503E",
",  c #2F3D41",
"<  c #343E44",
"1  c #344246",
"2  c #3C4444",
"3  c #364349",
"4  c #3A4549",
"5  c #3D4A4F",
"6  c #3C4A50",
"7  c #424544",
"8  c #4B4643",
"9  c #444946",
"0  c #4D4A44",
"q  c #454B4C",
"w  c #4B4C4C",
"e  c #444649",
"r  c #534C43",
"t  c #5A4F43",
"y  c #524E4B",
"u  c #4D514E",
"i  c #5B5245",
"p  c #55534D",
"a  c #5B554C",
"s  c #5A554A",
"d  c #454D52",
"f  c #4B4F51",
"g  c #4D5253",
"h  c #4C555A",
"j  c #545453",
"k  c #5B5651",
"l  c #5C5A53",
"z  c #56595B",
"x  c #645A4D",
"c  c #6B5C4C",
"v  c #635547",
"b  c #635C52",
"n  c #6A5D52",
"m  c #635E59",
"M  c #5F615D",
"N  c #666056",
"B  c #6C6254",
"V  c #65625C",
"C  c #6B655B",
"Z  c #6E695D",
"A  c #6E6857",
"S  c #736555",
"D  c #73665C",
"F  c #746A5D",
"G  c #7B6C5C",
"H  c #776B56",
"J  c #776957",
"K  c #566164",
"L  c #6B6660",
"P  c #6D6A64",
"I  c #686967",
"U  c #736C64",
"Y  c #7A6E62",
"T  c #736F69",
"R  c #767166",
"E  c #7C7264",
"W  c #75726B",
"Q  c #7B756B",
"!  c #7E786E",
"~  c #6C7576",
"^  c #767572",
"/  c #7B7772",
"(  c #7C7A73",
")  c #7C7D7A",
"_  c #757B7D",
"`  c #626E73",
"'  c #595D60",
"]  c #806F5D",
"[  c #83725F",
"{  c #837564",
"}  c #82766B",
"|  c #847A6C",
" . c #8A7C6B",
".. c #877966",
"X. c #907E6B",
"o. c #837D73",
"O. c #8A7F71",
"+. c #847F79",
"@. c #8E806D",
"#. c #93826E",
"$. c #868175",
"%. c #8B8275",
"&. c #85827B",
"*. c #8B857B",
"=. c #8D897D",
"-. c #938473",
";. c #958875",
":. c #9C8A76",
">. c #918679",
",. c #938A7C",
"<. c #9B8C7C",
"1. c #9C917E",
"2. c #A18F7C",
"3. c #A3927E",
"4. c #827F80",
"5. c #7E8486",
"6. c #848582",
"7. c #8A8682",
"8. c #8D8A83",
"9. c #8D8C8A",
"0. c #878881",
"q. c #938D83",
"w. c #9A8E81",
"e. c #918E8A",
"r. c #8C918E",
"t. c #959186",
"y. c #9C9385",
"u. c #94938B",
"i. c #9B968B",
"p. c #9C988D",
"a. c #959491",
"s. c #9C9A93",
"d. c #9A9A96",
"f. c #889395",
"g. c #A39583",
"h. c #A59985",
"j. c #AB9A86",
"k. c #A29789",
"l. c #A49A8C",
"z. c #AB9D8C",
"x. c #A99783",
"c. c #B19F8B",
"v. c #A39D93",
"b. c #AA9E93",
"n. c #A29E9A",
"m. c #AEA18E",
"M. c #B2A28D",
"N. c #A7A196",
"B. c #ABA294",
"V. c #A6A49B",
"C. c #ABA59B",
"Z. c #ACA99D",
"A. c #B3A593",
"S. c #B6A996",
"D. c #BAAB96",
"F. c #B1A69A",
"G. c #B3AA9B",
"H. c #BBAD9B",
"J. c #B8A792",
"K. c #BEB19D",
"L. c #ADAAA3",
"P. c #AAA8A5",
"I. c #B3ADA2",
"U. c #B8AFA4",
"Y. c #B6B1A4",
"T. c #BBB2A4",
"R. c #B4B3AA",
"E. c #BCB5AA",
"W. c #BCB9AC",
"Q. c #BDBAB3",
"!. c #B7B5B3",
"~. c #ACB1AF",
"^. c #99A2A4",
"/. c #C2B29D",
"(. c #C3B5A3",
"). c #C2B6AA",
"_. c #C4BAAC",
"`. c #CBBEAC",
"'. c #C8BAA5",
"]. c #C4BCB3",
"[. c #C4BEB8",
"{. c #CEC1AF",
"}. c #D3C2AB",
"|. c #C6C0B4",
" X c #CDC3B3",
".X c #C8C4BB",
"XX c #D2C4B4",
"oX c #D4CABB",
"OX c #D9CCB9",
"+X c #DBD2BF",
"@X c #B8BEC3",
"#X c #BCC3C4",
"$X c #CDCBC5",
"%X c #C5C8C7",
"&X c #D3CCC4",
"*X c #D9D4CC",
"=X c #D7D4CC",
"-X c #D9D8D7",
";X c #CCD2D4",
":X c #E4D6C5",
">X c #E3DDD4",
",X c #E4DFDA",
"<X c #E4E2DC",
"1X c #EAE3D9",
"2X c #F1E8DA",
"3X c #DAE0E2",
"4X c #E5E4E2",
"5X c #E9E6E3",
"6X c #EDEBE3",
"7X c #EDECEA",
"8X c #F3EFEB",
"9X c #F2EDE5",
"0X c #F4F2ED",
"qX c #FAF3EC",
"wX c #F6F5F2",
"eX c #FEFDF5",
"rX c #FFFFFE",
"tX c #FBF6F1",
/* pixels */
"3 2 % _.x : $ s b x r ; ! U.%.| . & # @ O $ - { ..B # # $ O o # % * ; L k ; ; # ; + l ; - : B : v.$ # C W $ $ G.OXXXq.@ ",
", q *X(.XXz.O.U.oX*XoXE.C.G.G.G.Z y.oX+XoX%.G B.D.K.E ).l.>X&X,.o.&X$X.X.X$XI.N.E.R.L.8.oXOX2X1XT.U N.&X&XC.B.A.m.:X>XU ",
"< 7 l.H.z.[ @.`.D.h.F E l.k.G.y.B : D.j.3...#.D./.D.G w.A.A.z.B v i.l.p.q.U U N._.v.8.R OX`.'.(.| E l.B.b.E -.g./.'.Y E ",
"< = E 2.M.-...M.A.h.F i <.l.l.k.| x 3.j.:. .:.M.M.M.S ;.M.A.@.| n %.q.q.$.b C q.q.q.8.r (.XX;.m...S G k.l.| x.D.J.S.y.a ",
"% 7 B.x.<.G G <.<.w.x c ,.k.w.} E v <.:...S X.c.x.g.S G  .@.{ F b o.! o.8.^ N ! R ( 7.y b.D.3.g.<.G F  .>. . .2.3.<.,.m ",
"% = B :...- v S c G r D Y E D n Y i ....G v G :.-.#.G { S .. .>.i F i b L V l l r y y 8 Y @.-.-.{ : c <.<.>...[ #.-.=.U ",
"% = F 3.g.B i O.%.Q Y F Q } F R E y.1.1.<.G S ]  .X.c g.A.x.h.k.;  .E o.s a $.o.o.o.8 W *.S i S B i S  .%.>.v H G 1.y.i ",
", 9 U.J.D.<.| U.I.Z.I.C.N.N.i.=.A G.F.y.b.,.| G  .3.:.J...c B S {  X`.).A k V.Z.G.Z.* C.N.Y * %.y.,.B.l.y. ...A.1.K.B.* ",
", 7 l.M.m...} C.C.v.q.o.=.$.$.o.D q.,.s %.O.@.H z.OX'.'.x.-.x : g.D.h.-.i N Y.W.R C.$.I.v.>.* ].T.|.]._.Z.F 1.(./.(.H.n ",
"< 2 | #.:.c s *.N.N.C.y.v.v.U v.E %.o.r v.l.o.%.H.'.D.D.H.H.O.O t  ...F $ b l.l.; i.I.Z.N.o.- N.l.B.N.n.s.Z %.J.D.D.(.i ",
"< 9 T././.H.>.%.C.G.E.T.C.N.i ,.*.U.l.y.C.i.$.i.G.A.A.z.m.l.Q o Y } | %.C U =.! 0 q.Z.L.*.$.Z q.t.t.q.q.q.L y.H.H.H.H.b ",
"< q _.}.(.m.n ; b v.].].C.v.s q.* %.%.b r r u.1X2X2X2X2X2X2X>X&X1X>X1X1X,X,X<X>X*X5X6X6X<X<X*Xv.q.8.8.8.7.o.b.H.H.S.G.D ",
"< 7 k./.H.,.E o.C %.N.N.l.q.- %.& i.k.i.q.( Q.rXeXeXeXeXeXeXeXeXeXeXrXeXrXrXrXrXrXrXrXrXrXrX8X/ q.*.=.*.U o.>.z.2.g.l.m ",
"< w  Xg.l. .Z o.A ,.l.i.t.R ; %.& ,.y.t.8.+.[.rXrXQ.p.l.i.l.q.; v.F.U.n.n.n.s.u.^ -XrXrXd.rX8XU C - C q.! C c { -.<.y.R ",
"1 7 A -.,.} B ! B | q.q.o.F r $.@ $.=.! / / Q.rXrXp.R B F n b . *.*.,.*.$.W Q.rXeXrXrXrX7.rXtXY.v.E | y.o.| E c S @.C W ",
"1 % o : # $ a W.].|.,.O O ; # ; $ O - ; W Q.-XrXrXP.! b.& G.v.r X O : v.eXrXrXrXrXrXrXrXT rX8XY o.; } { O.S E (.}.:XE.a ",
"4 h =XW.T.*.t.I.Z.C.y.$ N.|.|.W.Y.i.( r C.|.1XrXrXs.N q.B.F.*.C >.'.rXrXrXrXrXrXrXrXrXrXa.rXqXU.v.>.'.(.(.T.{ D.`.(.-.x ",
"4 q v.W.oXl.R p.t.q.o.- *.p.t.=.t.t.o.- *.u.$XrXrXL.! =.*.Y U i l.).rXrXrXrXrXrXrXrXrXrX9.rXqX,.} x J.'.(.B.G :.H.K.>.D ",
"1 q p.l.N.*.p W R s r # R s.8.t.u.t.! r t.8.%XrXrXa.P U =.t.i.Y l.].rXrXrXrXrXrXrXrXrXrX8.rXqXo.Y v l.g.y.G c c x.z.q.k ",
"1 q 8.,.q.o.V &.q.q.o.# % u.8.q.$.$./ l s.u.%XrXrX7.&.q.%.Q q.,.F U.rXrXrXrXrXrXrXrXrXrX7.rX9Xb C r %.-.Y S O.<.g.k.a.7 ",
"< 2 b a C s r T T Q m o N U k / T n.<X9.0.T Q.rXrX) 0 C L U L a t ! rXrXrXrXrXrXrXrXrXrXe.rXqX+.o.b b Y D n : t E U ) f ",
"< 2 p C C - 0 ( o.( N s R o.A q.! =XrXrX;X9.n.5XrXs.Z o.R +.r T R *.rXrXrXrXrXrXrXrXrXrXd.rXtX!.R.$.a Q F F x x E Y 4.e ",
"1 q V.Y.C.*.$._.T.Y.o.| N.U.U._.v.4XrXrXrX7XC.V.9X&XT. X|.y.b N.V.[.rXrXrXrXrXrXrXrXrXrXd.rXtXs.L.&.$.N.V.v.>.y.G.).].I ",
"1 q V.V.t.l o.C.C.G.Q E l.B.C.U.V.5XrXrXrXrX,XC.W.G.,.G.H.S Z q.q.L.rXrXrXrXrXrXrXrXrXrXu.rXwX9.7./ U i.p.q.} y.S.T.V.U ",
"< q d.V.&.l U o.! o.Z t.i.i.l.n.n.5XrXrXrXrXrX5X=XT.l.z.l.B x q.y.L.rXrXrXrXrXrXrXrXrXrXa.rX0X7.) I L &.=.y.O.,.g.l.i.C ",
"3 q d.N.) W P C.&X&X&X>X>X>X<X<X4XwXrXrXrXrXrXrXeX6XU.l.l.b O s o.V.rXrXrXrXrXrXrXrXrXrX0.rX0X^ T M W s.p.R t %.h.k.v.C ",
"1 4 P W P l P [.rXrXrXrXrXrXrXrXrXrXrXrXrXrXrXrXrXrX6Xv.O.B X b U p.rXrXrXrXrXrXrXrXrXrX9.rXwXV.L.t.U t.q.U t c ;.y.U C ",
"6 z V.Y.|.R.R p.rXrXrXrXrXrXrXrXrXrXrXrXrXrXrXrXrXrXrX9X*.x q.Y./ l rXrXrXrXrXrXrXrXrXrX9.rX0Xs.E.Z.G.T.o.L v.H.{.G.*.. ",
"1 q U.(.K.l.| I.rXrXrXrXrXrXrXrXrXrXrXrXrXrXrXrXrXrXrXrX0X1X_.oX%.p rXrXrXrXrXrXrXrXrXrX9.rX0Xs.p.i.i.p.Q ! W.T.K.(.].a ",
"1 q T.K.D.g.;..XrXrXrXrXrXrXrXrXrXrXrXrXrXrXrXrXrXrXrXrXrXrXy.F.U L rXrXrXrXrXrXrXrXrXrX) rX6Xp l q.t.q.*.R o.B.D.G.&Xp ",
"1 7 >.H.A.<.-.].rXrXrXrXrXrXrXrXrXrXrXrXrXrXrXrXrXrXrXrXrXeXN.%.! m rXrXrXrXrXrXrXrXrXrX6.rX0X&.$.7.q.p.*.L | B.S.G.P z ",
"1 2 E ....c E &XrXrXrXrXrXrXrXrXrXrXrXrXrXrXrXrXrXrXrXrXqXC.} %.U 0 rXrXrXrXrXrXrXrXrXrX( rX8XU T C b L ( U F y.B.C.L h ",
"1 u oXXXOXH.} ].rXrXrXrXrXrXrXrXrXrXrXrXrXrXrXrXrXrXeX6Xp.*.=.*.$.8.rXrXrXrXrXrXrXrXrXrX7.rXtX]._.k.n n Y c i %.l.p.w h ",
"1 q l././.<.x v.*X-X,X<X<X<X%X4X5XeXrXrXrXrXrXrXrX8XL.q.N R R R R 8.rXrXrXrXrXrXrXrXrXrXe.rXqXI.F.w.;.T.).<.t E >.E j 2 ",
"1 q l.H.H.,.b L R L ! *.o.( @ s.V.4XrXrXrXrXrXrX7X!.V l R R ) ) C 7.rXrXrXrXrXrXrXrXrXrXe.rXqXV.,.D | F.U.y.i F R p.l   ",
"1 q G.D.S.-.F q.e.N ! v.o.! &.R..X5XrXrXrXrXrX8X[.v.&.( u.L.V.R.t.u.rXrXrXrXrXrXrXrXrXrX9.rXqX*.A F } q.%.| y.C.N.I.&.j ",
"3 q l.c.A.-.i U N s i.Y.Y.q.v.t.R.5XrXrXrX5X$XP.Q.a.^ +.*.p.N.Z.s.d.rXrXrXrXrXrXrXrXrXrX7.rX7Xr %.Q | >.! F *.y.y.u.a.~ ",
"4 q l././.k.b U m *.Y.T.W.I.C 8.s.<XrXrX,Xs.V.!.4Xa.p u.C.N.I.R.u.0.rXrXrXrXrXrXrXrXrXrX9.rX7X@ C.U.Y.G.Z.v.| ,.y.q.r.~ ",
"4 w H.}.(.k.F U Z =.l.N.=.I.@ C.e.!.rX5Xa.P %XrXrXd.0 s.Z.I.8.V.) 9.rXrXrXrXrXrXrXrXrXrXe.rX7Xj s.p.p.t.8.=.N $.=.8.f.` ",
"4 u './.J.;.F $.! =.q.y.%.q.+ a.&./ P.a.I W %XrXrXd.% =.=.q.U / T 9.rXrXrXrXrXrXrXrXrXrX7.rXwX( I.t.*.*.&.R E $.Q ) 5.K ",
"3 q l.M.M.-.s b b x o.Z C a   I L w u W m k !.rXrXr.o N Z r k 0 k ( rXrXrXrXrXrXrXrXrXrX6.rX7X8 T C b U ! o.B F b V M z ",
"1 9 w.D.z.%.| U.C.G.i.U p.I.&.R.P.u.V W U U.-XrXrX$XU q.N.B.I.L.u.k rXrXrXrXrXrXrXrXrXrX) rX0X*.).T.*.C I.i.b.)._.v.W % ",
"1 = t c n * G G.(.(.%.y.p.N.p.p.8.q.L $.%.C.-XrXrXY.%.l.z.m.B.B.q.p rXrXrXrXrXrXrXrXrXrX^ rXtXN.H.D.y.{ b.G.`.(.H.A.s.j ",
"1 u oXOXXXb.-.S.H.D.z.y.q.i.i.u.8.$.P C | b.*XrXrXT.E l.h.-.h.l.>.b rXrXrXrXrXrXrXrXrXrX^ rXqX,.z.M.g.<.k.<.-.g.c.B.C.I ",
"1 q l.D.A.-.{ z.<.z.E x =.p.u.u.q.0.V 0 * n V.rXeXY.%.k.{ <...{ t r rXrXrXrXrXrXrXrXrXrX6.rXqXB.D.z.:.v E g.@.-.j.A.s.I ",
"1 9 y.M.z.O.Y k.g.>.b R s./ =.8.8.) j p x G.*XrXeXp.B E %.>.y.1.} b qXtXrXrXrXrXrXrXrXrX/ rXqXk.g.3.{ n o.} <.<.3.l.7.z ",
"1 9 l.c.z.%.r s b x b l U P 0 t.u.V I 0 ; U Q.rXeXL.U N C E O.{ : & B Q ].qXqXwXrXrXrXrXI rXqXq.<. .Y A b s : t > x r   ",
"1 9 >.:.z. .E C.I.W.W.I.R.o.p p.$X$X=X=X<XQ.|.-X6X.X[.|.( . T.H.k.XXOX:X_.N.p.v.=X6X0X8Xa.9X=X=.i.T.|.].I.! l.XXOX+X>Xo.",
"4 2 i x./.{ N q.p.t.8.*.&.p.p L.*Xp.R.L.R.V.) p 8.v.s.p.W r z.z.z.x./.XX(.,.o.8.8.q.V.u.s.q.# N.t.i.i.t.u.R } h./.A.V.p ",
"3 w G./.D.<.Q $.0.8.8.8.8.7.N P I.&.u.u.u.6.W $.q.q.u.e.7.0 h.x.3.3.g.:. .Y Q q.8.*.Z.=.o.C @ 0.t.8.=.0.&.m o.A.c.z.v.m ",
"4 q l.A.M.,.D o.7.0.*.0.0.7.0 N s.P 0.9.6./ P / 0.8.8.7.0.8 <.X.2.2.2.;. .F ! i.R &.8.&.&./ + 8.$.! W &.) k U z.j.z.p.V ",
"3 q ,.@.g. .x T T U ! W ( W p L 7.l 0.&.T L C U R o.R R / * O.c ] { ..G Y G E *.U C ! U P V + C L U o./ T m n .. .<.o.L ",
"4 w y.:.M.;.F ,.q.,.| =.N.C y.q.p.- C.*.b b U y.l.l.y.i.o.,.B.,.Y - ;.<.;.F E y.;.F B B ,.y.Y } ,.A ,.,.*.| | :.-.B.o.p ",
"4 q z.}.`.g.-.`.`.{.>.G.T.E oXoX].s ).F.O. .b._. X X Xl. .XXOXXXB.& S.(.z.E 1.`.K.D.S z.XX+XOXT.H.B A.(.`.l.#./.}. XG.m ",
"4 w G./.H.-. .(.K.H. .z.G.1.G.F.l.: `.G.z.B.H.H./.(.1.F  .m.S.`.%.& :.D.g.G #.D.H.H.G -.2.g.H.z.g.F S./.K.<.-.D.'.(.I.L ",
"4 q v.S.z.E E G.G.B.Q o.} y.i.i.o.- G.B.l.O.| ,.l.z.} x  .1.y.w.C * l.z.,.B ..S.S.z.{ | <.<.g.<.%.E A.z.z.,. .z.H.G.q.@ ",
"4 w &.r C l p V L U j l 8 L P % k $ ! ( U 8 r b U ! L y 0 b ! U k o C ! *.s - U Q U s q.b a Q R m b C o.q.E C Q C U _ K ",
"5 q j ; w 9 7 q 9 q 9 w e w q w e 7 w y q q y 0 u j w w 9 w j k y 7 0 y p 8 8 y y y 8 k 8 8 0 y q q y p k p p k 0 j g h ",
"6 d q w g 7 5 q q q q q d g q q q q q 9 q q w w f f f g w w g g f w w g u w w w w q e q w g w w e q w w w w p p j j g q ",
"3 4 g -X;X5.d f.-X;X~ d @X-X#Xq h 3X%Xr.2 _ #XI 2 ~.%X^.h q #X%X~ q ~ %X#X_ q g d.!.' q g z _ _ d q f j j j g j j z j f "
};
