/* XPM */
static char *_7ff4afb568c4d61f36bb9f72740a0b12YITexeLBAZlRJIr[] = {
/* columns rows colors chars-per-pixel */
"60 60 256 2 ",
"   c #3B1C13",
".  c #351308",
"X  c #3D2015",
"o  c #49291C",
"O  c #563528",
"+  c #5F2F1E",
"@  c #2C543A",
"#  c #356B3C",
"$  c #544B37",
"%  c #6B4937",
"&  c #77543C",
"*  c #6B5031",
"=  c #47793A",
"-  c #4C723D",
";  c #6B6339",
":  c #6F7339",
">  c #7A5510",
",  c #153A5A",
"<  c #0F2B50",
"1  c #0E3867",
"2  c #273E51",
"3  c #1A4958",
"4  c #1A5657",
"5  c #1A504C",
"6  c #274947",
"7  c #295949",
"8  c #345A49",
"9  c #275B56",
"0  c #2E4F56",
"q  c #18685B",
"w  c #2B664A",
"e  c #376849",
"r  c #387749",
"t  c #276757",
"y  c #356956",
"u  c #29785B",
"i  c #387858",
"p  c #297A49",
"a  c #1A5664",
"s  c #134869",
"d  c #2C5567",
"f  c #1C6870",
"g  c #266666",
"h  c #307269",
"j  c #515448",
"k  c #7A5743",
"l  c #715249",
"z  c #456949",
"x  c #487A47",
"c  c #567947",
"v  c #466A55",
"b  c #467854",
"n  c #556D4E",
"m  c #746E4D",
"M  c #4F7166",
"N  c #F73115",
"B  c #F82F11",
"V  c #89523C",
"C  c #936722",
"Z  c #855B47",
"A  c #915951",
"S  c #8B6549",
"D  c #876759",
"F  c #966A55",
"G  c #997258",
"H  c #92744E",
"J  c #A5775A",
"K  c #A96D59",
"L  c #B15C6A",
"P  c #8C6F66",
"I  c #A77A64",
"U  c #AF6C69",
"Y  c #A74F48",
"T  c #C96B71",
"R  c #CE635E",
"E  c #3E8838",
"W  c #54883A",
"Q  c #599739",
"!  c #4C8935",
"~  c #669A39",
"^  c #6E903B",
"/  c #59A336",
"(  c #6BA92B",
")  c #77B52C",
"_  c #69A838",
"`  c #75AB36",
"'  c #6BB238",
"]  c #75B234",
"[  c #7AB535",
"{  c #7BB43C",
"}  c #78B83A",
"|  c #6FB02A",
" . c #7DC43C",
".. c #79CA31",
"X. c #39874A",
"o. c #398556",
"O. c #379659",
"+. c #358C49",
"@. c #398867",
"#. c #32926A",
"$. c #38A55C",
"%. c #488848",
"&. c #568848",
"*. c #4B9949",
"=. c #599747",
"-. c #468958",
";. c #568A57",
":. c #489657",
">. c #599756",
",. c #668948",
"<. c #679946",
"1. c #739B45",
"2. c #679757",
"3. c #6A894F",
"4. c #58A348",
"5. c #47A759",
"6. c #57A856",
"7. c #56B44F",
"8. c #68A648",
"9. c #76AA46",
"0. c #66B749",
"q. c #76B746",
"w. c #69A955",
"e. c #75AB54",
"r. c #78B856",
"t. c #67B555",
"y. c #4F9366",
"u. c #679468",
"i. c #51AD67",
"p. c #6DB16D",
"a. c #57C34D",
"s. c #7AC649",
"d. c #72CA53",
"f. c #79CC68",
"g. c #70D65B",
"h. c #B28E0B",
"j. c #85BC2B",
"k. c #85B936",
"l. c #8FB238",
"z. c #ACB03E",
"x. c #D6B302",
"c. c #D8AD05",
"v. c #89C638",
"b. c #97CA3A",
"n. c #92CF33",
"m. c #A5CA39",
"M. c #A9D739",
"N. c #B4DC3A",
"B. c #B5DD37",
"V. c #B1C731",
"C. c #BBE235",
"Z. c #BBE33A",
"A. c #B5E339",
"S. c #B1E931",
"D. c #98E639",
"F. c #FFDB01",
"G. c #FAD806",
"H. c #EACE0C",
"J. c #FFE301",
"K. c #FEE606",
"L. c #FFF109",
"P. c #C8CD32",
"I. c #C3E938",
"U. c #CAF639",
"Y. c #DFC001",
"T. c #898B4B",
"R. c #AD884D",
"E. c #85AB49",
"W. c #85B947",
"Q. c #86B855",
"!. c #91B252",
"~. c #A6BA48",
"^. c #ABBE4F",
"/. c #B4876D",
"(. c #BB8C73",
"). c #B1856B",
"_. c #8CB664",
"`. c #979775",
"'. c #CB9B7D",
"]. c #C49679",
"[. c #D09E7F",
"{. c #C8936D",
"}. c #F5B076",
"|. c #CD9C64",
" X c #89C545",
".X c #98C947",
"XX c #84D348",
"oX c #97D548",
"OX c #88C458",
"+X c #98C655",
"@X c #8DD856",
"#X c #A6CA47",
"$X c #A6D647",
"%X c #B4DA45",
"&X c #ADD053",
"*X c #98E64B",
"=X c #B8E544",
"-X c #B9E653",
";X c #AEEF4A",
":X c #94CB66",
">X c #A8CE65",
",X c #ABE561",
"<X c #F6D759",
"1X c #EBC25D",
"2X c #CAF34F",
"3X c #F1EA50",
"4X c #F6C964",
"5X c #FFC973",
"6X c #E1EB68",
"7X c #206598",
"8X c #DB6D84",
"9X c #F57E97",
"0X c #E9778C",
"qX c #3696B6",
"wX c #3C8598",
"eX c #71AE88",
"rX c #4C9FA5",
"tX c #52A4A4",
"yX c #158DD7",
"uX c #1F90CE",
"iX c #2394CC",
"pX c #0B90EB",
"aX c #B4B3A5",
"sX c #9F9F90",
"dX c #CE9E83",
"fX c #D19F80",
"gX c #F48C8B",
"hX c #F7958A",
"jX c #F48394",
"kX c #FC8899",
"lX c #FC9493",
"zX c #D6A586",
"xX c #D8A787",
"cX c #D9A887",
"vX c #D8A788",
"bX c #DAA989",
"nX c #D7A688",
"mX c #D7A889",
"MX c #E1AF8D",
"NX c #E2B18F",
"BX c #E8B785",
"VX c #E1AF90",
"CX c #E4B391",
"ZX c #EAB896",
"AX c #F7AD84",
"SX c #CCB9BD",
"DX c #B2C495",
"FX c #BFC8A8",
"GX c #F5C282",
"HX c #F9C785",
"JX c #FFD28D",
"KX c #CEC9B4",
"LX c #C4D399",
"PX c #D7C8C4",
"IX c #DDD2CA",
"UX c #E1CBCF",
/* pixels */
"8 5 p.i.@Xd.o.S.0.OX*Xf.;.r.d.:.@.i v :Xd.s.s.=.oX9.$X2XW.x ,X@X0.7.%._.&Xb.b.n.q.b.M.$X2X X= oXoXs.} q.<.9.k.k.k.{ } } ",
"r r 6 t 8.a.i.s.-.-.g.g.f.6 :.5.9 %./ p >.XXXX>.*Xs.OXoXXXXX=.f.6.p t 7 8.b.b.M.W.b.M.0.*Xs.g.4.9. X=.<.x = W.k.k.Q Q.e.",
"@ @ t t 5.$.3 9 5.X.i @.i b o.y.9 3 t t X.>.t.t.r.t.O.a.a.XXo.O.5.5 7 c <.8.q. Xr.:.4.o.7.d.d.:.i t.=.# @ W { [ k.~ ;.:X",
"# 6 u 9 w t 3 O.5.u y >.6 -.-.3 3 i @.:.5.y.i.d d T.u.T.m 0 u 5.i.9 8 9.{ _ 8.0.-.i 6.6.u @.t i >.;.&.%.x 8.~ Q 1._ %.5.",
"r r :.t 7 r.b q u -.g.&.9 t g u @.d , @.d , y.g I N N N B m q h g @.$.t <.9.<.q.*.:.0.:.n D L {.z.R.L H j &.=.;.8.9.i O.",
"X.w r t 4 -.d.5 w a.b w +.g 8.W a f :.y.g h #.m N N B B Y 4 t y i.@.i !.$XE.&.<._ o.b A T 9X9XhX5XAXkX9X|.H - i.r Q.r t ",
",.%.p 4 -.e i t r o.8 ' u <.D.9 y.;.6 y.a g #.m Y m H + j f t y d 0 c ,.,.,.%.;.;.c L kXhX}.}.jX9X9XjX9XlXAXA 2.@.e n.x ",
"r t 3 9 i >.2.r.q y y o.i D.>.w.;X~ -.d < , s 1 s 4 $ T.j 0 3 3 3 -.u.u.;.6 8 -.M K kXjX4X3X3X}.jXjXhX}.}.gXkXA -.3 W.=X",
"7 b.b 9 8.%.b 2X9.r 9.@.Q.%X>.2X<.r %.6 # # 6 w t j d pXqXO b x e 6 v ;.b - ! 8 & <XhX9X}.<X4XhXjXjX4X3X3X4XkX8Xm -.2.2X",
"r b.U.k.I.S.` E.3X1.U.%XI.=X2Xm.<.E.Q v.] ) ) )  X* z.P.G.c.* j.j.[ ( W <.9.[ ` U lXjXjXjXgXjXjXjXjX}.4X4X}.jX5XR.I.l.&X",
"%.k.C.C.C.I.I.l.I.U.I.I.I.I.I.M.2X#X&.` k.[ j.v.: h.L.F.H.eX7X: v.k.k.~ ] ~ ` : 8XkXjXgXjXjXjXjXgXgX9XjXjXjXjX}.R.~.U.N.",
"r !.C.B.C.C.C.I.Z.I.I.C.C.I.C.I.B.^ <.{ k.j.v.E.$ ^._.tXyXyX:XC m M.~ W ) v.n.m 8XhX4X<X4XgX9X}.<X<XhX9XjXjXjXkXL ~.I.I.",
"2.+X#XB.C.C.A.Z.2XZ.Z.C.C.C.C.A.N.#X<.k.k.k.v.; 7XiXqXtX^.G.J.F.* ` ] &.] j.n.: 8XAX3X<X<XhX9X}.<X<X}.jXjXjXjXkXL ~.Z.I.",
"3.<.b.N.N.N.A.M.&X2XN.N.A.A.N.A.%X#X^.` k.v.1.C G.G.F.J.J.F.P.tX7X$ 1.<.W.k.v.^ L kX}.}.hXjXjXjXhXgXjXjXjXjXjXjXA %XZ.k.",
";.+Xm.M.N.N.b.2X+X.X=XA.n.M.M.m.l.: c = j.k.* Y.K.H.H.#XeXqXpXqX&Xh.$ y x k.} 9.A kXjX9XjXjXjXjXjX9XjXjXjXjXkXT T.A.$X-X",
"y e 9.W..X$X_ Q.,X&..X Xv.n. X+X~.^ = '  .: d iXuXyXyXyXiXeXP.F.F.K.C n w.9.2.r.j T kXjX9XjXgX}.4X}.jXjXgXlX0XZ b.b._ +X",
"o. XS.8.q. XW._ 8.=.w.q. . .} 8.8.9.=.%.u.* z.^.^.#XP.H.G.F.F.G.F.F.P.O 3.0.y r.t.j T 5X}.jXgX<X<X}.9XAX<X}.Z ` v.v.[ _ ",
"_..X1.-X!._  X X8.W.$X{ q.} q.}  X X9.b ; c.J.F.F.F.F.F.F.F.F.H.#XrXpXwX* >.+.r >.w $ R.1XlXkXlXlXkXkXgX|.; <.A.k.` b.W.",
"g v 2XQ.3.q._ q.q.W.q.0.q.q.9.%X=X9.x c 2 rXeX_.^.V.P.V.^._.rXuXyXrX^.K.h.$ :.p -.=.7 %.n D U L T U F m 8 2.-X9.<._ 1.2X",
"y.&X&.0 E.W.<./ q.q.>.,.m H H H c Q.Q.$ !.eXqXiXuXuXuXuXiXqXeX^.H.F.F.F.L.> j m m G G D j i $ . z b =.q i !.8 0 w.s.x !.",
">.e 7 &.8.&.u.2.&.2.* J G Z S I I * % > Y.J.J.K.K.G.G.G.G.J.J.J.J.K.G.Y.h.V % % S % % F J $ j T.;.&X3.y.%.@ # = x y v 8 ",
"X.E ' Q ! 7 _.-X>.$ I F     X   Z '.zX].S C h.h.x.x.Y.Y.Y.x.x.c.h.h.C S ).bXMX(.% . . . S F O %XZ.b.9.$XW ( | | | ~ k.` ",
"X.# y +X X+Xx  X;X; ].o o o   o F bXvXbXVXdX(.I G G H H G G J I I (.dXVXNXzXzXMXCX/.O . S I ; U.C.M.Z.k.W _ ( | ) [ _ b.",
"E p 3 2.D.*X@X# *X: I I     k fXNXzXzXzXzXbXMXNXCXVXVXVXVXVXVXCXNXMXcXzXzXzXzXzXzXNXzX% S % l.I.C.C.C.m.W _ ) | ) ) ] [ ",
"# 6.f.t.d.*.%.OXs.=X* I /.).MXbXzXbXcXbXbXzXzXzXzXzXzXzXzXzXzXzXzXzXzXbXbXvXzXcXzXzXbXbX% o %XC.C.B.B.I.k.` ` [ ) ] 9.{ ",
"7 @ w :.d.d.t.;Xt.@X; Z MXNXzXzXbXzXbXzXbXbXbXbXbXvXvXbXbXbXbXbXbXcXbXbXcXbXbXbXzXbXzXbX'.o ~.A.B.A.Z.m.9.x ~ } ] _ w.oX",
"@.@.g h 5.a.O.6.i.z A ZXzXzXcXcXvXbXbXbXbXbXbXbXbXbXbXbXbXbXbXbXbXbXbXbXbXbXbXbXzXzXzXMX).% ; oXm.m.k.= x W _ 8.e./ &.*X",
"5 < #.@.i.O.3 @.p.% [.bXnXcXnXbXbXbXbXbXbXbXbXbXbXbXbXvXbXbXbXbXbXbXbXbXbXbXbXbXbXvXzXMXk ].k 9.v.E.>X_.z =.4.&.0.r.x 7.",
"o.*.*.3 t u t O.n F CXzXbXvXbXbXbXbXbXbXbXbXbXbXbXbXbXbXbXbXbXbXbXbXbXbXbXbXbXbXbXcXbXzX% MXG : XX} 8.W.2.;.*.=.%.4.*.X.",
"%.! r 4 #.t 4 h $ {.bXzXzXbXbXbXbXbXbXbXbXbXbXbXbXbXbXbXcXbXbXbXbXbXbXbXbXbXbXbXcXzXMX/.Z ZX(.* W.q..X$Xe.&._ =.x x %.*.",
"e s s < 4 g b v % zXbXzXzXbXbXbXbXbXbXbXbXbXcXcXzXzXzXbXvXcXbXbXbXbXbXbXbXcXbXzXzXzXCXJ G CX'.% e.&X&X1.;.$X^ - x ;.W.%.",
"0.h s M m < ;.&Xl MXzXzXbXbXbXbXbXbXbXbXbXzXbXzXzXbXbXzXcXvXcXvXvXbXvXvXzXbXzXbXbXzXCXS I CXzXl 2.x y 2.&X,.6 ,.W.9 Q..X",
"7 m.' s.3XE.b !.Z NXzXzXbXbXbXbXbXcXcXcXcXcXzXbXbX'.zXbXcXcXbXzXzXzXzXzXbXzXbXzX(.zXCXZ (.MXzX% =.! =.=.&.m.m.m.I.E.c 2X",
"# l.U.S.C.U.%Xm Z NXzXnXcXbXbXvXcXbXbXvXvXvXbXzXk o O (.bXzXzXbXMXNXNXbXzXbX].O o O '.Z ].bXfX% ` ( | / <.=XI.I.B.I.m.l.",
"# l.C.C.C.B.U.~.k MXzXzXbXvXvXcXcXnXzXcXbXzXbX'.X   . S NXzXbX(.J J G ).bXbX).      /.& [.BXcX% W.( ~ ( 2.2XC.B.I.B.I.A.",
",.V.V.B.B.B.A.%X% zXbXmXzXcXcXvXcXBXBXGXGXBXBXbX).k F zXbXzXbXzX% R V /.bXzXbX(.F /.zX& BXGXJXS 1._ _ _ E.#XB.B.B.B.B.I.",
"z #XB.B.B.N.M.-X; I CXzXbXvXbXnXBXHXGXGXGXGXHXBXbXNXNXbXzXzXbXfXA gXY ).MXzXcXbXNXNX'.& GXGXJXS ^ } _ c T.&XN.N.N.B.B.m.",
"3.3.W.M.N.N.m.-X&X% zXbXzXvXvXcXGXGXGXGXGXGXGXBXzXzXzXzXbXzXbXzXV R V ].bXzXzXzXzXbX].V HXGXHX& 8.' 8.2.;.2..Xm.M.M.%X-X",
"h ;.0.{ b.b.v.' -X3.% fXCXbXzXzXBXHXGXGXGXGXHXBXnXbXvXbXbXbXzXbX'.J (.bXvXbXzXvXzXbX/.S JXJX/.$ 4.8.%.M E.Q.9.k.n.v.8.>X",
"f q.S.}  X Xq.' } q.,.% I zXNXMXMXGXHXHXHXHXBXcXvXcXbXbXbXvXbXzXbXCXbXzXbXvXbXbXbXZX/.H GXJ $ :.*.*.6.o.t W.n.k.v.v.' =.",
".X$X1.&X.X_ v. Xq.q.@Xq.: k F ).'.zXBXBXBXbXnXvXzXbXzXbXbXbXzXbXzXzXzXbXzXbXzX'.].].Z % H - 6 +.+.+.+.6.,X$XW.$Xk.[ b.q.",
"c z ,X+X3.w.~ b.W.q.q.8.q.9.1.T.O & I bXzXzXbXcXvXbXbXbXbXbXbXvXbXcXbXcXzXbXzXZ o l m c a.w u o.o.o.8.OX>.u.-X.X8.=.k.$X",
"z >X3.6 2.r.<.- .X9.=.8.8.8.e.m /.bXzXcXcXcXzXvXbXbXbXbXbXbXbXbXbXbXbXzXbXvXbXbXzX& O m z t t t o.x x y i :Xc 7 e.r.x 1.",
"x z r *.-.8 3.E.&.w.&.%.&.8.$ I CXzXbXzXzXbXzXcXbXbXbXbXbXbXbXbXbXbXbXbXzXcXzXNXI S bXbXG j w <.r y ;.t b &.# W W x &.0 ",
"r X.*.;.>.b x 2X_.;.r.k.r c Z CXzXbXzXbXbXzXbXvXbXbXbXbXbXbXbXbXbXbXbXbXvXzXzXNX& ].bXbXfX; %XP.W.&X9.=.! _ ) ` ) ( 9.9.",
"# X.w E.I.Z.W.=.2X=XoXM.2.l /.bXzXzXNXG (.bXzXvXbXbXbXbXbXbXbXbXbXbXbXbXbXbXzXCXG S CXNXG T.N.B.I.l.W.B.~ _ ] ` ) ) _ .X",
"# X.%.&.v.D.$X#  X;XoX8.2X; /.ZXbXZX'.O '.bXzXvXbXbXbXbXbXbXbXbXbXbXbXbXzXzXbX(.% * k S T.N.B.N.N.M.C.k.= ` ` ] ] ] ` { ",
"@ >.XXd.s.e.- oXr.;X*X&.&.e.k ).(.I % ).NXzXcXbXbXbXbXbXbXbXbXbXbXbXbXbXbXcXbX'.% =Xm !.U.m.m.M.M.M.m.>X3.! ` [ [ { { { ",
"e 5 5 :.OXw.t.;X0.s.XXg.6.*.2.O F G ].MXzXbXzXbXbXbXbXbXbXbXbXbXbXbXbXbXbXzXbXzX& M.^.+X$X-X&Xb.M.b.b.W._.e._ { { ` q.q.",
"%.*.u i :.7.:.*.4.*.0.0.d.9 :.k VXCXbXzXbXcXbXcXbXbXbXbXbXbXbXbXbXbXbXbXcXzXbX'.* .X=Xq.,X&X9.v.v..X#X^ &.x =.' ] _ 2.XX",
"5 < #.@.5.@.3 -.6.y y h 4 u o.% fXnXnXbXzXvXcXbXbXbXbXbXbXbXbXbXbXbXbXcXvXzXMX/.; q.W.q.8./ } s.q.e._.+Xe *.4.W &.w.b t.",
"o.X.O.a u O.4 *.O.h p.i.4 u g j J CXzXbXzXbXbXvXcXzXvXvXzXzXzXzXzXzXbXzXbXzXCXA 1. X_ q.}  .q.q.q.' 8.0.w.%.%.%.e >.6.i ",
"w +.#.a O.$.4 9 h $.O.4 4 q u -.% '.bXzXbXvXbXzXbXbXbXbXbXbXbXbXbXzXzXnXzXbX'.% 3..X X{ v.q.9.9.q.Q.&XW.=.r r r %.e o.i ",
"! 6 1 < , a s a g #.3 f s s s 1 d & zXzXzXzXzXbXvX'.[.[.[.'.].{.].bXzXzXzXCXI m w.z OX Xw.<.8.8.8.W..XoXe.p @ z # =.;.9 ",
"Q ! @ 9 y < 3 s , a , , 7 t a # M l ].CXbXbXCXfX% D D D D D D P % ).ZXMXCXCX% `.DXv e w.;.x W W =.x e w.<.E.@ +X!.@ >X!.",
"# ! | / } _ Q q.W Q / _ | ) / OXIX`.% ].zX[.].% P IXKXKXKXPXPXIXaX% F I J & P PXUXDXQ Q _ ( | ) ] ( | ! ^ U.N.#X2X%X9.2X",
"Q Q | | ] [ _ { v.[ n.b.` [ ) _.KXPXsXD D D D sXIXPXPXPXPXKXPXPXIXSXsXsXsXaXIXKXDX+Xv.j.v.v.) ) ) ] ` ` p.-XI.I.Z.I.2X$X",
"x ! ..) [ [ ] ` [ v.k.] ] [ [ | ) r.p.sXsXDXLXFXaXaXLXLXaXKXLXaXsXDXDXsX>X_.Q.{ | ) k.j.j.k.| ] [ ` ] _ =.%XC.A.Z.Z.Z.I.",
"&.8.~ 9.k.[ [ } } v.} [ ] { ] ] ] / X.4.s.s.} %.+Xs.*X;X<.;.f.d.0.v.x = ' ) ) ] [ [ [ k.k.[ ] ] ] ] ' 8.+X#XN.Z.A.A.A.N.",
".X&.x q.{ { {  .' s.9.~ } { q.} _ = =.*.:.:XOX>.$Xs.OX*XXXr.t.f.6.X.7 %.8.k.[ ] ] } { { [ ] ] ` ' ' Q 2.+X%XN.N.N.N.M.n."
};
