/* XPM */
static char *f6e7542ccfbe4dc0803076d687af9543le6ZZz99xMsaVnRu[] = {
/* columns rows colors chars-per-pixel */
"60 60 237 2 ",
"   c #3D352B",
".  c #2F393E",
"X  c #2C3638",
"o  c #333535",
"O  c #363A3B",
"+  c #3A3D3D",
"@  c #373935",
"#  c #2C2A26",
"$  c #433629",
"%  c #44392D",
"&  c #483A2C",
"*  c #443D32",
"=  c #4A3E34",
"-  c #423E3D",
";  c #3C423E",
":  c #4B4236",
">  c #4C453B",
",  c #4D493D",
"<  c #464139",
"1  c #514435",
"2  c #50473B",
"3  c #534A3D",
"4  c #5B4D3C",
"5  c #594633",
"6  c #4F412C",
"7  c #65573E",
"8  c #2B3842",
"9  c #323D43",
"0  c #3A3E41",
"q  c #363F4A",
"w  c #3C4344",
"e  c #33434D",
"r  c #3A454A",
"t  c #3D494D",
"y  c #364444",
"u  c #3C4951",
"i  c #374551",
"p  c #434444",
"a  c #4C4643",
"s  c #4C4A43",
"d  c #42464A",
"f  c #454B4C",
"g  c #4B4D4D",
"h  c #464847",
"j  c #544D43",
"k  c #5A4E43",
"l  c #554F49",
"z  c #584B48",
"x  c #565246",
"c  c #5B5245",
"v  c #55534B",
"b  c #5C544B",
"n  c #5E594C",
"m  c #595844",
"M  c #464E52",
"N  c #4A5255",
"B  c #535554",
"V  c #5E5A51",
"C  c #5B5C5D",
"Z  c #595856",
"A  c #625546",
"S  c #62564A",
"D  c #635A4D",
"F  c #6A5C4C",
"G  c #685546",
"H  c #705E4D",
"J  c #645D52",
"K  c #6A5D52",
"L  c #645F5A",
"P  c #614F4A",
"I  c #72614D",
"U  c #666154",
"Y  c #6B6355",
"T  c #65625A",
"R  c #6C645A",
"E  c #6E695D",
"W  c #6C6857",
"Q  c #726555",
"!  c #71665B",
"~  c #736A5D",
"^  c #796C5C",
"/  c #786855",
"(  c #7B705C",
")  c #73705A",
"_  c #5A5F61",
"`  c #636462",
"'  c #6C6662",
"]  c #6E6A62",
"[  c #6D6D6B",
"{  c #62686A",
"}  c #746D62",
"|  c #796E62",
" . c #746E69",
".. c #6D7169",
"X. c #767065",
"o. c #7B7265",
"O. c #75726A",
"+. c #7C756B",
"@. c #7E796D",
"#. c #7B7671",
"$. c #7E7A74",
"%. c #7E7D7A",
"&. c #737573",
"*. c #6E7275",
"=. c #816E5B",
"-. c #80715F",
";. c #817464",
":. c #82766A",
">. c #837B6D",
",. c #8A7B6C",
"<. c #8A7866",
"1. c #907C6A",
"2. c #847D73",
"3. c #8B7E72",
"4. c #837E78",
"5. c #837975",
"6. c #8B7769",
"7. c #89816E",
"8. c #93816E",
"9. c #858175",
"0. c #8B8275",
"q. c #85827A",
"w. c #8C857B",
"e. c #8E897C",
"r. c #8B8977",
"t. c #938474",
"y. c #998675",
"u. c #948877",
"i. c #92857A",
"p. c #928A7D",
"a. c #9A8C7D",
"s. c #9B8879",
"d. c #9C917D",
"f. c #95927E",
"g. c #A18E7B",
"h. c #A3927D",
"j. c #7F8588",
"k. c #8C8581",
"l. c #8E8A82",
"z. c #848684",
"x. c #948D82",
"c. c #9A8E82",
"v. c #948D89",
"b. c #908783",
"n. c #969185",
"m. c #9B9285",
"M. c #96938B",
"N. c #9C958A",
"B. c #9E988C",
"V. c #9E9983",
"C. c #939493",
"Z. c #9D9A92",
"A. c #999996",
"S. c #838D95",
"D. c #A49584",
"F. c #A69985",
"G. c #AB9B85",
"H. c #A3968B",
"J. c #A39A8D",
"K. c #AB9C8C",
"L. c #AA9683",
"P. c #B19D8A",
"I. c #A49D92",
"U. c #A99E92",
"Y. c #A19F9B",
"T. c #A08D83",
"R. c #A9A189",
"E. c #B2A28D",
"W. c #A6A194",
"Q. c #ABA395",
"!. c #A5A39A",
"~. c #ACA49A",
"^. c #AEA99C",
"/. c #B3A494",
"(. c #B9A694",
"). c #BBAA95",
"_. c #B1A69B",
"`. c #B3AA9C",
"'. c #BAAC9B",
"]. c #B2AA94",
"[. c #BDB19E",
"{. c #B8B297",
"}. c #ABA6A1",
"|. c #ADAAA1",
" X c #A5A8A7",
".X c #B4ADA3",
"XX c #BAADA2",
"oX c #B7AEAA",
"OX c #B6B0A5",
"+X c #BBB2A4",
"@X c #BBB5AB",
"#X c #BEBAAD",
"$X c #B8B4A8",
"%X c #BDB8B2",
"&X c #ACB0B1",
"*X c #C3AC97",
"=X c #C1B29E",
"-X c #C7B399",
";X c #D0B99E",
":X c #C2B4A4",
">X c #C4B9A6",
",X c #CAB9A5",
"<X c #C2B6AA",
"1X c #C3BAAC",
"2X c #CABCAC",
"3X c #C9B5A4",
"4X c #C4BDB2",
"5X c #C6BCB6",
"6X c #D8BFA7",
"7X c #CAC2AF",
"8X c #D1C1AB",
"9X c #C5C1B5",
"0X c #CBC2B4",
"qX c #CBC3BA",
"wX c #CDC9BD",
"eX c #C7C4BA",
"rX c #D3C4B4",
"tX c #D2C7BA",
"yX c #D5CABC",
"uX c #DCCCBC",
"iX c #D7C6B6",
"pX c #DBD1BE",
"aX c #E0D0BD",
"sX c #C7C5C4",
"dX c #D4CDC2",
"fX c #D9CEC4",
"gX c #DDD3C4",
"hX c #DBD4C9",
"jX c #D9D3C5",
"kX c #CBD1D2",
"lX c #D4D8D7",
"zX c #E4DBCC",
"xX c #E1D6C8",
"cX c #E7DDD2",
"vX c #F0DCC9",
"bX c #EDE4D8",
"nX c #D9DDE0",
/* pixels */
"9 w 2.D.P.1.= 2.H.x.} > 0.p.m.N.Y F p.i.0.A D D.t.m.! 1 Q a.:.: j w.:.w.m.J - O.w.O.5.j F 0.7.>.V.3 Y m.m.S 5 J.G./.F.4 ",
"9 o wXgXvXL.K tXfXzX<X2.0X0XtXyX| a.gXtXxXa.a.2X2XiX,.a.iX0XzXi.U.bXcXgXzX$XO.%XsX5X5X+.`.xXzXzXgXY +XhXzXJ.! 7X2XaXrXH ",
"9 w W.2XP.t.K 4X.XJ.@.D ~.Q.U.J.F o.'.m.a.o.m.Q./.'.A ,._.'.H.Q ! Q.'.N.N.2.b }.oXv.v.J >.`.>X7Xp.S H.J.W.0.F /.=X[.D.3 ",
"9 + x.Q./.1.3 H.I.I.2.j J.N.c.p.! ! K.K.D.Q D.'./.'.Q ;.XX/.c.Y J >.m.w.m.R j e.b.k.v.b ~.1XQ.d.0.c >.N.J.| Q '.'.'.H.A ",
"9 w .XQ.g.I A U.w.w.> j H.N.U.w.D K c.c.;.k ,.'.Q.a.4 1 0.>.^ c R p.o.9.N.+.l 0.5.b.5.: m.W.d.V.m.c J p.o.S A m.D.y.a.A ",
". + n o./ 5 3 o.K b   > :.o.+.D * D >.:.3 1 ;.a.a.0.^ 1 Q Y Y c b ~ > 2 R c = b R J b # ! i.0.u.>.3 >.m.| >.A t.t.s.t.F ",
"X O I.:X*Xh.$ Q c ~ D : ~ K J * ! J.U.c.J.Q | >.a.a.Y ,.XX'.'.J.$ F 3 D j c U E 5. .j j J ~ F Y Y k :.o.:.D.$ A F H Q 4 ",
". g .X'.,Xg.F Q.+XOX~.x.0X+X.Xp.>.~.p.m./.3.:.D Y ^ ^ ^ t.>.| A J.qX<XyX} 9.J.W.|.oXJ x.Q.2.c F o.,.N.p.9.o.^ 2X).=X=XQ ",
"9 o I./.).y.3 c.J.N.2.D 9.2.>.+.>.Q.2.9.0.0.a.Y 1X2X>X>X/.+XF S J.+X+XH.Y J o.@.b +.2.N.9.9.Y '.qX0X<X+X+Xw.2.>X=X8X).4 ",
"9 O +.t.=.G & :.p.} E 2.N.@.U } :.9.0.R i.p.S F <X:X'.Q./.H.t.1 >.p.p.>.c e..XJ.} ^.+X`.J.o.R Q.J.B.m.n.H.~ o.+X).*XD.& ",
"9 + 2.m.1.g.& p.Q.`.OX+X~.m.} w.o.~.~.U.+XI.p.>.U.Q.J.J._.m.o.Y f.V.m.p.+.>.0.+.Y ^.+XI.2.>.} 0.p.p.p.e.m.o.n _.G.E.D.k ",
". O $XrX3X:Xc 2.w.x.c.x.w.N.o.w.R n.J.o.Y ~ ! 2 3.a.D.Q.J.D.0.D 7.,.,.0.c Y 0.w.% o.2.+.J ~ j p.w.e.p.p.x.} R :X).).F.A ",
"8 w M.:X'.t.c J.@.N.Q.J.I.N.} w.R I..X~.x.x.+.Y U.J.m.m.m.a.! S _.~.W.~.J.o.n.B.Y ~.J.I.B.J.o.p.9.x.9.@.2.R b W.D.g.K.k ",
"9 O !.+X/.y.k 2.2.x.J.I.N.+.X.w.>.I.J.x.x.w.2.b ~.J.m.H.t.p.,.Q ~.H.H.N.n.o.m.N.} x.w.n.9.x.J J D c ~ >.+.E j 0.t.D.c.S ",
"9 0 ' 0.8.^ % } J +.2.+.E J Y +.R 2.2.2.R o.~ : ~ | ~ J o.D D 3 :.o.o.o.9.x R o.3 W ~ } 9.R > e.! 3 >.m.>.2.Y ~ ^ -.! z ",
"r o #.3.t.Q : N.w.B.o.# b 9.+.w.E ~ b k 2.J.N.I.w.D c >.0.c.c.% c ~ o.~ 3 D p.>.+.e.>.3 3 9.w.~.w.F m.N.J.m.c J.=X(.T.S ",
"u r %XyX<Xt.K <XOX`.c.x W.I.~.^.J.W.w.@.4X.X`.OX@Xi.D H.`..XJ.k N.<X+X4XY p.+X+X@X.X`.:.0.@X<X'.H.o.`.<X>X>X! E.;X6X3XG ",
"u r }.<X(.,.j I.c.m.p.n n.N.n.e.n.W.e.~ x.N.x.2.2.o.c w.9.0.p.R 0.I.XXQ.! >.m.m.m.m.J.| :.c.0.0.;.^ K.K.'.'.F <.;X*Xg.A ",
"u r v.Q.XX,.*  .9.p.w.D @.x.x.9.@.2.W c x.N.c.9.0.| 3 +.x.~.U.D >.<X~._.j } m.p.p.p.m.R R 9.,.0.! | J.a.V.o.6 F.(.(.p.j ",
"u t $.m.F.,.3 0.m.N.p.n W e.I.n.p.X.n W I.x.p.x.x.| S ~.N.I.I.} ~ I.~.p.c w.J.} m.x.p.b J w.o.S ~ F p.,.>.^ c '.K.J.B.b ",
"e 9 O.Y Q Q 2 ' ~ 2.J k } E E X.o.Y n > W } +.2.R x j J +.R J k 2 b Y b j j b D b E k } m.x.w.2.~ k Y S ~ o.: S Q ~ } b ",
"e # %..X/.3.: w.e.c.U > 2.+.@.9.Y : 2.>.>.2.~ >  .x.I.B.I.R b J.U.I.I.N.~.R w._.I.~.@.e.zXfX0X@X.XN.n p.N.p.: | a.p.$.< ",
"8 9 A.4X<X3.R eXqXqXc.o.#X+X@X4X~.~ 4XfXqX4XI.X.dXhXdX4XdX>.! oX^.~.^..X^.@.B.`..X~. .+.N.J.I.~.W.x.@.@XOXI.W ^.2XiX@Xb ",
"e r C.^.J.c R ~.I.~.@.J ^.W.~.`.~.~ 0.W.Q.N.2.X.~.I.I..X~.J ! c.w.e.p.x.N. .+.Q.I.B.L } c.n.c.c.n.@.W I.~.x.R I.'.(.Q.k ",
"i . C.N.;.K j B.~.9.n E N.Q.N.J.J.J 0.Q.x.m.x.~ J.~.~.J.Q.E ~ x.p.N.x.2.e.R J $.e.e.J 2.M.x.c.2.x.} ' e.n.n.E e./.D.x.> ",
"i 8 z.x.3.K > v.0.e.} ~ I.m.I.J.m.D n.e.e.J.+.U H.J.J.H.^.2.c o.>.N.2.9.x.T J O.+.9.V V J ' $.} T V T @.+.] > m.'.H.I.b ",
"i . T Y k c j x.@.w.U j p.} 2.9.~ : >.o.} } o.> >.p.p.>.e.} , U b E E W R n Z.wX4XeXOX|.+.> j ] @.T ' q.q.} * } 3.x.>.a ",
"e r O.p.a.m.S j 9.p.+.@.J k : R e.p.0.* W 2.>.~ :.D D :.>.R +.e.b j @.J } v Z.9X^.Z.!.@XM.O.l.OXqX@X|.|.O.v , o.3.i.4.l ",
"y w #XpX,XF.~ J.hX4XdXfX4XQ.D `.yXdX~.D .X`.@XOX`.w.e.hXdXwXwXhXw.Y N.W..XE n.l.9.n.B.M.2.R Z.I.I.M.I.!.l.+.x.yX2XrX4Xb ",
"y ; n.].G.h.( n.`..XQ.OXW.N.+.I.W.N.2.J N.m.I.B.m.o.~ `.~.~.W.~.+.U N.Q.~.E w.e.w.M.B.n.' U q.q.w.b.N.Z.M.R W `.(.'.x.> ",
"X ; e.].G.d./ p.Q.+X~.^.B.2.J N..XN.2.E N.n.B.N.p.o.X.^.Q.^.J.m.2.} I.Z.l.V E +.2.w.q.+.J T O. .4.l.M.Z.0.J b .X'.XXk.l ",
"X O W ,.I 7 4 H.J.I.`.N.9.x.> } ~ } R c p.w.x.p.Y U E W.J.^.B.9.E n @.T X.> , V V T V s U O.O.' R J J +.O.J j N.Q._.l.- ",
"t O B.>X,X/.A N.J.N.J.p.0.2.J w.2.p.>.x q.} o.J s v } m.B.m.n.p.W e.#XW.B.+.N.#X.XM.B.+.4XhXeX@X4XR J +.M.w.= x._..X5.s ",
"r + Z.<X,X=XA :.>.R 2.2.c.9.J x.x.m.p.} W J e.x.@.@.X.@.W E X.o.n w.@XI.x.+.N.OXI.w.@.E $X@X@X^..XR @.$X9XB.@ D | K a - ",
"9 r !.+X,X/.% b }   J ~ ' n < 0.w.9.2.o.J W Q.J.I.N.D * D U W E j n 2.X.@.Y +.9.w.9.X.+.n.e.~.~.x.j J 2.9.J , x.N.x.$.g ",
"8 d }.XX'.K.k H..Xn 2.x.w.$.@.dXqX4X4X4X^.v 2.^.^.J.0.W `.^.~.W.N.} 2.e.w.E E J b T x J N.} 2. .b b q.M.M.+.O.^.+X+XZ.v ",
"q d Z.J.D.1.= 0.+.b w.N.n.n J Z..X~.W.Z.q.] !.W.x.n.9.D X.X.e.@.9.3 x.@X4X.X^.OXR 2.I.J Y R b : 2.N.~.~.^.e.J Q.c.m.M.l ",
"u O ' 3.y./ : +.! B.~.I.I.B.' l.M.v.x.x.@.n w.@.@.+.n n.`.J.`.1Xw.n c..X`.W.J.I.@.9.Q.x.c.e. .x $X.X~.I.I.I.J w.m.m.x.B ",
"r d }.uXuX(.& o.| B.m.J.I.x.V w.2.q.w.e.o.x 9.o.0.o., W.OX+XB.0.9.J p.N.x.c.p.9.c Y 2.w.2.w.>.E N.N.B.B.w.x.> +.a.x.q.v ",
"N d 4X/.).s.A p.9.J.J.x.N.l.T B. .+.2.9.E x e.r.p.2.c 2.n.p.~ X.9.c o.+.>.9.2.} c 2.J.W.B.N.9.E N.I.N.0.w.+.k i.3.3.} s ",
"t O n./.P.y.& K D } +.+.} n x n j j b +.J < X.W n c * x D b k 3 k   D +.J J D S > k ~ } ~ R b = R ~ R R  .R = K F S b < ",
"r h 9./.P.<.1 m._.I.2.3 e.x.Z.^.~.w.x n @.^.OXJ.n.W.X.2 p.x.N.J.2.x m.N.I.9.> ! w.o.o.} j +.J.Q._.U.e.a 2.>.S Q.K./.2.a ",
"d O b / =.6 F <X4XqXJ.R #X4X4X@X.X|.X.+.n.9X#X7X#X+Xp.w.+X<X4X0XQ.+.@X<X<XI.R .X`.oXtXyX:._.tXtXyXiXU.i.qX'.:.2X,X:X~.> ",
"r ; Q.2X,XG.A _.~.`.p.R e.N.n.q.q.w.X.n 9.J.^.W.^.W.o.} J.N.m.x.w.~ x._.~.9.| ~._.<X<Xp.| U.oXH.F.F.c.,.D.,.H D.K./.I.b ",
"y h B.2X=Xh.F Q.~.x.R > N.J.x.n.Z.l.' : D r.n.f.H.m.+.E J.N.J.J.o.K H.m.x.! D i.w.w.2.2.K ~.XXU./.K.a.k s.6.F g.g./.x.b ",
"r ; p.).G.t.A U.m.X.b c N.w.l.b.Z.q.' > f.`.r.V.N.J.~ Y 0.0.p.Q.:.| H.c.H.| ! o.2.2.o.o.D i.oXU.J.J.3.b H.:.K D.D.i.x.J ",
"r p m.=X).d.$ : J W J , x U T ' ] T R U m m U ) U U D 3 J R ~ Y j S ~ K } j : } :.:.| | k S J o.^ Y b z J k > Q -.:.+.j ",
"f @ Y ( 8.Q = I.@X@X%XeX^.2.@ $.sXsXeXeXOXe.3 3 W ~.~.OXc.k m.Q.+XtXyX>XyXU.! qXqXqX<X<X<Xm.% ! 9.J.~.4X.X} o.gX8XrX0XJ ",
"t ; ,.E.G.t.3 p.Z.Z.M.M.Z.q.T $.%X|.Y.A.!.!.T X.x.!.I.I.N.' Q.~.Q.].`.'.'.:.R m.m.I.I.N.I.x.~ I.B.I.!.M.I.} ( E.G./.B.n ",
"y w <XrX,XK.c 9.9.q.l.l.q.q.s T A.C.C.A.M.k.V 2.n.e.x.k.x.} c.J.V.d.d.p.,.R R c.N.B.M.e.9.} J e.n.l.l.q.q.J 0.).E.D.I.J ",
"9 f U.).K.d.3 +.w.w.w.k.M.q.s  .v.l.l.C.l.#.V q.N.x.N.b.k.l o.p.N.V.d.a.0.Y K B.M.M.k.$.4.O.a $.2.q.$.$.q.n ,.).P.D.U.R ",
"r w 0.s.D.u.: R } +.2.0.+.' > V q.$.#.5.O.T j W R >.@.+.} = | Y o.;.>.,.,.Q D >.T O.4.q.] V <  .T #.+.+.O.b F <.1.a.p.k ",
"M + c / F c   Y R k j j +.E @.@.l   R J k * Y p.7.,.:.b = o.i.o.D 1 A F ^ 3 A ! R x * > @.5.$.R R * Y ~ D D $ H =.Q k : ",
"t ; W.aXrXQ.E qX4X_.o.3.hX_.zXbXc.} @X.XJ.S +XiX7XpXxXm.} zXuXuX(.| 2X'.+X;.[.yX0X<X:.3.bXzXxXfX@XK Q.{.J.a.F iXuXuX<XE ",
"r ; Q.3X:X0.~ +X_.<X~ | >X'._.Q.2.} U.Q.Q.| W.'.>X[.K.! ! K.F.K.~ ! m.J.a./ d.'.'.[.^ ;.'.(.'.(.i.Y {.{.=Xt./ ).'.'._.n ",
"u + c.XXU.W L oX.X.XJ J I.I.W.U.R R OXI.^.E 9.~._.+Xw.Y R N.H.p.E @.@X~.x.D 0.>X].Q.Y F ,.a.K.D.o.J [.R.R.a.H 2X:XXXB.j ",
"u . &.$.] C r j.z.O.p a ' [ %.&.B h %.q.z.; s ..T %.` ` h [ $.&.B ` z.O.q.v v %.%.#.v L $.L $.O.L a ' q.N.' a w.l.k.[ g ",
"M t w o O d r 8 o + w + 0 O + 0 r 0 @ + r y o ; + 0 O d w O w w w + o 0 w o @ O + ; p @ @ o - - p p o p p - a + - O @ d ",
"u M w C C w M t _ N d d d ` g M d _ B h w f ..B f + _ _ f g f C f N g B C h B g g g h B B g B h h g g g l Z C B B B g w ",
"9 r &.lX&Xd u S.nXC.p g C.lX[ + { kXsXZ y A.lX&.O *.sXA.d f z.kX{ w C &X&XC g B C. Xg h B B %.[ p g g B B g B g B Z B h "
};
